<svg width="318.52mm" height="174.82mm" version="1.1" viewBox="0 0 318.52 174.82" xmlns="http://www.w3.org/2000/svg">
 <g transform="translate(6.7352)">
  <path d="m54.979 45.375c-18.035 0.30952-24.137 17.252-25.202 34.286-0.46019 7.363 5.1009 15.466 2.7262 22.739-9.3018 28.489-23.195 33.619-16.202 45.536 9.9691 16.988 45.853 8.137 53.17 14.478 28.414 24.625 30.097 5.0768 59.789-0.73238 31.02-6.0692 43.507 9.7642 70.908 12.7 14.573 1.5614 29.001-1.291 42.862-5.5562 24.94-7.6739 34.058-19.879 37.042-45.244 1.6694-14.19-8.9958-26.133-8.9958-40.217 0-19.857 26.445-25.857 4.413-48.161-10.603-10.734-34.335 1.4913-45.698 7.4716-5.8397 3.0735-18.508 1.2492-24.925 2.5327-54.793 10.959-52.603-15.932-91.746-20.052-21.359-2.2483-31.871 17.963-58.142 20.218z" fill="#3abb81" style="paint-order:normal"/>
  <text x="199.66327" y="68.566353" fill="#000000" font-family="sans-serif" font-size="10.583px" stroke-width=".26458" style="line-height:1.25" xml:space="preserve"><tspan x="199.66327" y="68.566353" stroke-width=".26458"/></text>
  <g fill="#3abb81">
   <path d="m49.177 31.944c-2.1938 0.88414-3.0492-0.93437-3.8772-1.7624-0.89044-0.89044 0.76659-2.529 1.0574-2.8198 8.6208-8.6208 11.593 6.7754 2.8198 4.5821z"/>
   <path d="m301.9 126.05c-2.166-0.22517-5.992 0.77728-5.992 3.5247 0 9.3462 13.217 5.0242 15.509-0.70494 2.1494-5.3735-5.7528-20.33-9.8692-16.214-3.7735 3.7735 8.2342 11.424 0.35245 13.394z"/>
   <path d="m218.74 26.129c-2.9185-2.6326-4.0253-7.6549-1.55-10.77 2.3281-2.9299 5.8833-0.46866 8.3314-2.0642 2.2828-1.4878 4.2429-4.6815 6.9974-5.402 4.7206-1.2349 10.216 5.4978 7.4294 9.4625-2.3797 3.3854-8.39 2.1645-9.5257 4.1048-2.1586 3.6881-1.2965 9.9152-7.4219 8.6238-1.8719-0.39466-3.7868-2.5836-4.2605-3.9548z"/>
   <path d="m299.08 56.97c-4.9642-2.9433-4.1293-6.5452-2.1148-10.574 1.1529-2.3058-3.0471-5.8897-1.7623-8.4593 0.42281-0.84562 2.6448-1.7624 3.5247-1.7624 9.2856 0 7.3724 7.2246 8.4593 13.746 0.47963 2.8778 2.921 4.8824 2.1148 8.1069-1.2027 4.8108-9.52 2.4514-10.222-1.0574z"/>
   <path d="m9.5591 44.832c-2.9139-0.56007-8.9651-0.16913-9.5956 3.6139-0.25712 1.5427 0.11734 3.5111-0.37385 4.9847-0.74074 2.2222-4.3771 1.7437-4.8601 5.6078-0.28637 2.2909 2.0958 3.897 2.617 5.9816 0.55377 2.2151-2.094 5.1834-0.99694 7.1032 0.5094 0.89144 1.5428 1.4989 2.3677 1.9939 4.125 2.475 5.448-1.1599 8.8479-2.617 1.7239-0.7388 4.6438-1.157 5.4832-3.1154 0.87374-2.0387-0.28147-4.4218 0.7477-6.4801 2.2455-4.491 8.7025-9.2528 4.7355-15.203-1.2313-1.847-6.9276-3.9141-8.9725-1.8693z"/>
  </g>
  <g fill="none">
   <path d="m-6.7352 12.722"/>
   <path d="m183.53 157.33c-2.9129-0.52039 2.0054 0.86156-92.609-26.022-20.117-5.7159-38.717-11.001-41.334-11.744s-4.6796-1.3983-4.5837-1.4558c0.34577-0.20742 60.834-16.848 62.568-17.213 2.2639-0.4762 6.1347-0.51222 8.419-0.0783 0.87464 0.16613 12.577 3.2124 26.005 6.7695 21.423 5.6749 38.032 10.071 55.472 14.682 41.204 10.895 51.688 13.678 51.967 13.795 0.36675 0.15436-56.868 20.205-59.467 20.833-1.4219 0.34333-5.4314 0.61309-6.4384 0.43318z" opacity=".99" style="paint-order:normal"/>
   <path d="m183.53 157.33c-2.9129-0.52039 2.0054 0.86156-92.609-26.022-20.117-5.7159-38.717-11.001-41.334-11.744s-4.6796-1.3983-4.5837-1.4558c0.34577-0.20742 60.834-16.848 62.568-17.213 2.2639-0.4762 6.1347-0.51222 8.419-0.0783 0.87464 0.16613 12.577 3.2124 26.005 6.7695 21.423 5.6749 38.032 10.071 55.472 14.682 41.204 10.895 51.688 13.678 51.967 13.795 0.36675 0.15436-56.868 20.205-59.467 20.833-1.4219 0.34333-5.4314 0.61309-6.4384 0.43318z" opacity=".99" style="paint-order:normal"/>
   <path d="m181.38 161.85c-2.5819-0.58951-138.1-40.216-138.38-40.465-0.33587-0.29297-2.4606-3.986-2.3544-4.0922 0.03518-0.0352 0.90213 0.17689 1.9266 0.47128 1.0244 0.29438 16.848 4.7923 35.164 9.9954 18.316 5.2031 49.132 13.959 68.48 19.457 37.51 10.66 37.196 10.58 40.491 10.346 2.2716-0.16125 3.762-0.51031 7.211-1.689 3.8015-1.2991 58.57-20.409 59.26-20.677 0.28297-0.10992 0.51449-0.12718 0.51449-0.0383 0 0.33104-1.6772 4.2058-1.9298 4.4585-0.14445 0.14446-10.819 4.0043-23.722 8.5775s-26.412 9.3614-30.021 10.64c-9.0549 3.2091-8.7341 3.1264-12.428 3.2056-2.1587 0.0463-3.4245-0.0109-4.2095-0.1901z" opacity=".99" style="paint-order:normal"/>
   <path d="m181.38 161.85c-2.5819-0.58951-138.1-40.216-138.38-40.465-0.33587-0.29297-2.4606-3.986-2.3544-4.0922 0.03518-0.0352 0.90213 0.17689 1.9266 0.47128 1.0244 0.29438 16.848 4.7923 35.164 9.9954 18.316 5.2031 49.132 13.959 68.48 19.457 37.51 10.66 37.196 10.58 40.491 10.346 2.2716-0.16125 3.762-0.51031 7.211-1.689 3.8015-1.2991 58.57-20.409 59.26-20.677 0.28297-0.10992 0.51449-0.12718 0.51449-0.0383 0 0.33104-1.6772 4.2058-1.9298 4.4585-0.14445 0.14446-10.819 4.0043-23.722 8.5775s-26.412 9.3614-30.021 10.64c-9.0549 3.2091-8.7341 3.1264-12.428 3.2056-2.1587 0.0463-3.4245-0.0109-4.2095-0.1901z" opacity=".99" style="paint-order:normal"/>
   <path d="m183.53 157.33c-2.9129-0.52039 2.0054 0.86156-92.609-26.022-20.117-5.7159-38.717-11.001-41.334-11.744s-4.6796-1.3983-4.5837-1.4558c0.34577-0.20742 60.834-16.848 62.568-17.213 2.2639-0.4762 6.1347-0.51222 8.419-0.0783 0.87464 0.16613 12.577 3.2124 26.005 6.7695 21.423 5.6749 38.032 10.071 55.472 14.682 41.204 10.895 51.688 13.678 51.967 13.795 0.36675 0.15436-56.868 20.205-59.467 20.833-1.4219 0.34333-5.4314 0.61309-6.4384 0.43318z" opacity=".99" style="paint-order:normal"/>
   <path d="m183.53 157.33c-2.9129-0.52039 2.0054 0.86156-92.609-26.022-20.117-5.7159-38.717-11.001-41.334-11.744s-4.6796-1.3983-4.5837-1.4558c0.34577-0.20742 60.834-16.848 62.568-17.213 2.2639-0.4762 6.1347-0.51222 8.419-0.0783 0.87464 0.16613 12.577 3.2124 26.005 6.7695 21.423 5.6749 38.032 10.071 55.472 14.682 41.204 10.895 51.688 13.678 51.967 13.795 0.36675 0.15436-56.868 20.205-59.467 20.833-1.4219 0.34333-5.4314 0.61309-6.4384 0.43318z" opacity=".99" style="paint-order:normal"/>
   <path d="m183.53 157.33c-2.9129-0.52039 2.0054 0.86156-92.609-26.022-20.117-5.7159-38.717-11.001-41.334-11.744s-4.6796-1.3983-4.5837-1.4558c0.34577-0.20742 60.834-16.848 62.568-17.213 2.2639-0.4762 6.1347-0.51222 8.419-0.0783 0.87464 0.16613 12.577 3.2124 26.005 6.7695 21.423 5.6749 38.032 10.071 55.472 14.682 41.204 10.895 51.688 13.678 51.967 13.795 0.36675 0.15436-56.868 20.205-59.467 20.833-1.4219 0.34333-5.4314 0.61309-6.4384 0.43318z" opacity=".99" style="paint-order:normal"/>
   <path d="m184.28 118.58c-36.272-9.6068-66.791-17.642-67.82-17.857-2.3843-0.49651-6.2137-0.54251-8.515-0.1023-0.876 0.16756-15.481 4.1363-32.456 8.8195-16.975 4.6831-31.034 8.513-31.241 8.5109-0.7723-8e-3 -3.5469-0.94359-3.966-1.3373-0.56068-0.52673-0.5887-1.6028-0.05661-2.1739 0.20762-0.22286 0.818-0.53143 1.3564-0.68573 4.2741-1.2249 63.883-17.366 64.934-17.583 2.1266-0.43926 4.692-0.55304 6.8622-0.30436 1.8903 0.21661 5.3635 1.0516 17.956 4.3168 3.1384 0.81377 16.525 4.2671 29.747 7.6741 13.222 3.407 29.387 7.5721 35.921 9.2558 19.183 4.943 36.091 9.2962 46.211 11.897 5.1964 1.3357 9.6828 2.5212 9.9699 2.6345 0.68959 0.27216 1.0683 0.84345 1.0683 1.6115 0 1.1993-0.33775 1.4891-2.7128 2.3275l-1.3096 0.46232z" opacity=".99" style="paint-order:normal"/>
   <path d="m184.28 118.58c-36.272-9.6068-66.791-17.642-67.82-17.857-2.3843-0.49651-6.2137-0.54251-8.515-0.1023-0.876 0.16756-15.481 4.1363-32.456 8.8195-16.975 4.6831-31.034 8.513-31.241 8.5109-0.7723-8e-3 -3.5469-0.94359-3.966-1.3373-0.56068-0.52673-0.5887-1.6028-0.05661-2.1739 0.20762-0.22286 0.818-0.53143 1.3564-0.68573 4.2741-1.2249 63.883-17.366 64.934-17.583 2.1266-0.43926 4.692-0.55304 6.8622-0.30436 1.8903 0.21661 5.3635 1.0516 17.956 4.3168 3.1384 0.81377 16.525 4.2671 29.747 7.6741 13.222 3.407 29.387 7.5721 35.921 9.2558 19.183 4.943 36.091 9.2962 46.211 11.897 5.1964 1.3357 9.6828 2.5212 9.9699 2.6345 0.68959 0.27216 1.0683 0.84345 1.0683 1.6115 0 1.1993-0.33775 1.4891-2.7128 2.3275l-1.3096 0.46232z" opacity=".99" style="paint-order:normal"/>
   <path d="m183.53 157.33c-2.9129-0.52039 2.0054 0.86156-92.609-26.022-20.117-5.7159-38.717-11.001-41.334-11.744s-4.6796-1.3983-4.5837-1.4558c0.34577-0.20742 60.834-16.848 62.568-17.213 2.2639-0.4762 6.1347-0.51222 8.419-0.0783 0.87464 0.16613 12.577 3.2124 26.005 6.7695 21.423 5.6749 38.032 10.071 55.472 14.682 41.204 10.895 51.688 13.678 51.967 13.795 0.36675 0.15436-56.868 20.205-59.467 20.833-1.4219 0.34333-5.4314 0.61309-6.4384 0.43318z" opacity=".99" style="paint-order:normal"/>
   <path d="m183.53 157.33c-2.9129-0.52039 2.0054 0.86156-92.609-26.022-20.117-5.7159-38.717-11.001-41.334-11.744s-4.6796-1.3983-4.5837-1.4558c0.34577-0.20742 60.834-16.848 62.568-17.213 2.2639-0.4762 6.1347-0.51222 8.419-0.0783 0.87464 0.16613 12.577 3.2124 26.005 6.7695 21.423 5.6749 38.032 10.071 55.472 14.682 41.204 10.895 51.688 13.678 51.967 13.795 0.36675 0.15436-56.868 20.205-59.467 20.833-1.4219 0.34333-5.4314 0.61309-6.4384 0.43318z" opacity=".99" style="paint-order:normal"/>
   <path d="m183.26 157.23c-0.71852-0.0832-1.6867-0.24648-2.1515-0.36287-0.67351-0.16865-46.397-13.148-130.64-37.084-2.9583-0.84057-5.3785-1.5748-5.3782-1.6317 0.0011-0.15269 61.206-17.002 62.924-17.323 1.9574-0.36518 6.0215-0.35356 8.0077 0.0229 1.6505 0.31284 3.1169 0.69569 33.369 8.712 18.576 4.9222 28.822 7.6329 33.208 8.7858 1.1833 0.31099 4.8035 1.27 8.0448 2.1312s9.766 2.588 14.499 3.8375c17.025 4.4941 42.489 11.243 43.471 11.522 0.55127 0.15638 0.96927 0.31738 0.92889 0.35777-0.16669 0.16668-58.044 20.286-59.167 20.567-2.4141 0.60543-4.6462 0.75112-7.1199 0.46472z" opacity=".99" style="paint-order:normal"/>
   <path d="m183.26 157.23c-0.71852-0.0832-1.6867-0.24648-2.1515-0.36287-0.67351-0.16865-46.397-13.148-130.64-37.084-2.9583-0.84057-5.3785-1.5748-5.3782-1.6317 0.0011-0.15269 61.206-17.002 62.924-17.323 1.9574-0.36518 6.0215-0.35356 8.0077 0.0229 1.6505 0.31284 3.1169 0.69569 33.369 8.712 18.576 4.9222 28.822 7.6329 33.208 8.7858 1.1833 0.31099 4.8035 1.27 8.0448 2.1312s9.766 2.588 14.499 3.8375c17.025 4.4941 42.489 11.243 43.471 11.522 0.55127 0.15638 0.96927 0.31738 0.92889 0.35777-0.16669 0.16668-58.044 20.286-59.167 20.567-2.4141 0.60543-4.6462 0.75112-7.1199 0.46472z" opacity=".99" style="paint-order:normal"/>
   <path d="m183.26 157.23c-0.71852-0.0832-1.6867-0.24648-2.1515-0.36287-0.67351-0.16865-46.397-13.148-130.64-37.084-2.9583-0.84057-5.3785-1.5748-5.3782-1.6317 0.0011-0.15269 61.206-17.002 62.924-17.323 1.9574-0.36518 6.0215-0.35356 8.0077 0.0229 1.6505 0.31284 3.1169 0.69569 33.369 8.712 18.576 4.9222 28.822 7.6329 33.208 8.7858 1.1833 0.31099 4.8035 1.27 8.0448 2.1312s9.766 2.588 14.499 3.8375c17.025 4.4941 42.489 11.243 43.471 11.522 0.55127 0.15638 0.96927 0.31738 0.92889 0.35777-0.16669 0.16668-58.044 20.286-59.167 20.567-2.4141 0.60543-4.6462 0.75112-7.1199 0.46472z" opacity=".99" style="paint-order:normal"/>
  </g>
  <g stroke="#000">
   <path d="m0 0"/>
   <g stroke-width=".26458px">
    <path d="m49.494 105.08 56.997-15.581a19.768 19.768 179.7 0 1 10.223-0.0541l128.51 33.673a1.6448 1.6448 87.416 0 1 0.14163 3.1382l-53.873 19.449a16.309 16.309 178.13 0 1-10.061 0.32931l-131.96-38.092a1.487 1.487 90.406 0 1 0.02029-2.863z" fill="#ccc"/>
    <path d="m47.887 101.3 0.54025 5.4929c0.05578 0.20149 0.0989 0.39842 0.30822 0.65514 0.16158 0.19426 0.37145 0.37032 0.73852 0.48711l131.63 37.996c1.3361 0.46763 2.7733 0.59915 4.213 0.72271 2.0975 0.0699 4.1598-0.22244 6.1793-0.95648l53.873-19.449c0.5351-0.22789 0.90376-0.59495 1.0393-1.1569l0.5185-5.2779c-0.13213 0.71648-0.5356 1.2752-1.3181 1.6137l-53.909 19.461c-1.2319 0.45404-2.4958 0.72892-3.7803 0.88749-2.1446 0.092-4.2854 0.22422-6.5059-0.50123l-132.26-38.204c-0.48734-0.20207-0.82512-0.5983-1.1843-0.96669z" fill="#b3b3b3" stroke-linecap="round" stroke-linejoin="round"/>
    <path d="m52.878 104.15-3.7283-1.0769c-0.5838-0.35595-0.96772-0.67625-1.1844-0.96672-0.03512-0.43354-0.15884-0.76697 2.38e-4 -1.42 0.13611-0.2988 0.18824-0.58914 0.51679-0.90732 0.18865-0.21242 0.45874-0.36222 0.781-0.47188l57.617-15.732c1.2626-0.2857 2.4979-0.49681 3.6822-0.56843 1.2324-0.06181 2.3898 0.0062 3.5173 0.12571 1.0414 0.12968 2.0641 0.30937 3.0511 0.58537l127.74 33.441c0.6899 0.26367 1.4397 0.4358 1.828 1.1607 0.45294 0.86024 0.30788 1.6736-0.19752 2.4588-0.39361 0.44682-0.90288 0.72069-1.4956 0.86971l-2.2563 0.8158-126.03-33.024c-3.2815-0.84006-6.6778-0.89938-10.223 0.0541z" fill="#b3b3b3"/>
   </g>
  </g>
 </g>
 <g transform="translate(6.7352)">
  <g stroke="#000">
   <path d="m189.36 110.96c-4.4565-1.4812-5.933 3.3144-9.8868 3.9384-3.8588 0.60898-8.476-0.68038-11.628 2.41-2.6518 2.5999-0.91889 5.3228 0.059 8.1327 0.28363 0.81496 0.39323 2.1277 1.033 2.7441 0.94515 0.91068 2.6278 0.83223 3.8071 0.81754 3.7625-0.0469 7.9505-2.1815 11.702-2.9005 7.9101-1.5161 12.826 0.10627 19.006-6.6398 0.58792-0.64171 0.57541-1.7297 0.59025-2.5379 0.0957-5.2114-7.1717-4.6116-10.477-5.019-1.4322-0.17651-2.8311-0.83133-4.2056-0.9455z" fill="#ffcd22" fill-opacity=".28462" stroke-width=".265"/>
   <path d="m186.6 112.31c-0.67309 0.025-0.8516 0.45224-1.1805 0.93129-3.2898 4.7915-7.6707 2.2883-12.277 3.2204-0.78614 0.15907-2.2613 1.3139-1.9478 2.3104 0.18856 0.59953 1.1794 0.80459 1.697 0.65403 1.5777-0.45891 2.8857-1.6371 4.5302-2.0332 3.7405-0.90101 5.8897 0.0712 10.079-2.019 3.1601-1.5768 1.6948-3.8734-1.0625-3.3199" fill="#fffae7" fill-opacity=".31538" stroke-width=".26458px"/>
   <path d="m200.22 114.17c-0.7409-0.24719-2.5411-1.099-3.2907-0.37678-0.64126 0.61786 3.5478 2.1152 4.3236 2.7796 0.14653 0.1255 0.80363 1.0573 1.0772 0.88152 1.6545-1.0627-0.42723-3.8549-2.1102-3.2844z" fill="#fffae7" fill-opacity=".31538" stroke-width=".26458px"/>
   <path d="m172.49 106.67c-1.1703-0.0567-2.3983 0.6761-3.0841 1.6351-1.4117 1.974 2.4402 1.9439 3.3054 2.2607 1.4794 0.54166 2.35 2.08 4.1023 1.7986 4.0449-0.64954-2.6214-5.327-4.0728-5.6517" fill="#ffcd22" fill-opacity=".28462" stroke-width=".265"/>
   <path d="m176.57 110.02c-1.3829-1.0061-3.33-3.6054-5.2717-2.2269-0.20104 0.14273-1.2873 0.86493-1.0588 1.2245 0.23823 0.37491 1.9321-0.97964 2.9107-0.60249 0.63437 0.2445 2.9813 2.7316 3.4198 1.6049z" fill="#fffae7" fill-opacity=".31538" stroke-width=".26458px"/>
   <path d="m165.41 112.12c-0.51795-0.0342-0.98701 0.0476-1.3043 0.47755-0.19553 0.26493-0.38984 0.68779-0.22955 1.0204 1.0977 2.2781 5.0568-3.0612 1.1373-1.322" fill="#ffcd22" fill-opacity=".28462" stroke-width=".265"/>
  </g>
  <g fill="#edd069" stroke="#000" stroke-linecap="square" stroke-linejoin="round" stroke-width=".165">
   <path d="m148.09 122.2c0.0553-0.17807 0.0937-0.36234 0.16603-0.53419 0.22285-0.52918 0.60151-1.0375 1.1485-1.2656 0.32297-0.13469 0.54467-0.0506 0.86824 2e-3 0.71846 0.23453 1.4884 0.22912 2.2144 0.42411 0.24911 0.0669 0.96172 0.34153 1.186 0.42569 0.40593 0.21789 0.61515 0.3085 0.97731 0.58273 0.14436 0.10931 0.27522 0.23538 0.41282 0.35307 0.20708 0.1663 0.40798 0.34058 0.62122 0.49889 0.29178 0.2166 0.58562 0.43148 0.89303 0.62526 0.3666 0.23109 0.75135 0.43206 1.127 0.64809 0.94076 0.46249 1.9153 0.85857 2.9745 0.90414 0.24027 0.0104 0.48102-9e-3 0.72116-0.0217 0.8283-0.0451 0.80648-0.065 1.6732-0.19849 0.80425-0.13066 1.5642-0.3791 2.1772-0.93497 0.14195-0.12873 0.25907-0.28261 0.38219-0.42946 0.0441-0.0526 0.79151-1.0024 0.80262-1.0165 0.38758-0.66266 0.91169-1.3237 1.207-2.0366 0.0905-0.21848 0.15957-0.44627 0.21428-0.67634 0.0463-0.1948 0.0837-0.39404 0.0879-0.59421 4e-3 -0.20691-0.0417-0.4118-0.0626-0.6177-0.0737-0.19177-0.13089-0.39072-0.22103-0.57533-0.30917-0.63318-0.80101-1.1695-1.395-1.5471-0.41607-0.26449-0.77565-0.3659-1.2306-0.5279-0.18536-0.0442-0.5827-0.16825-0.81245-0.14003-0.20721 0.0255-0.48259 0.16611-0.67901 0.24105-0.11649 0.0444-0.23399 0.0862-0.35098 0.12929-0.12652 0.0571-0.42385 0.16926-0.52499 0.29221-0.48373 0.588-0.0544 0.19106-0.28615 0.50223-0.36523 0.49035 0.0497-0.18731-0.38089 0.57368-0.12757 0.40851-0.0871 0.20948-0.13229 0.59477l0.99592 0.0903c3e-3 -0.14017-2e-3 -0.0711 0.0149-0.20732 0.30884-0.60756-0.14204 0.24515 0.39178-0.59429 0.32841-0.51642 0.12778-0.26414 6e-3 -0.16666-0.013 0.0104 0.0204-0.0265 0.0306-0.0397 0.077-0.0357 0.15397-0.0713 0.23095-0.107 0.1256-0.0464 0.2518-0.0912 0.37678-0.13921 0.10203-0.0392 0.20339-0.0801 0.30418-0.12237 0.0449-0.0188 0.16164-0.0216 0.1328-0.0608-0.0332-0.0452-0.11286 2e-3 -0.16784 0.0131-0.17185 0.0351 1.4842-0.15648 0.51936 0.0844 0.29411 0.10129 0.68456 0.21829 0.95573 0.37986 0.56883 0.33894 0.97542 0.85147 1.2302 1.4558 0.0212 0.11764 0.0621 0.23339 0.0635 0.35291 2e-3 0.14754-0.0235 0.29497-0.0539 0.43935-0.0362 0.17204-0.0791 0.34416-0.14533 0.507-0.27096 0.66586-0.75151 1.2565-1.1047 1.8779-0.0121 0.0154-0.71735 0.91104-0.77471 0.98258-0.17501 0.21831-0.32076 0.42208-0.56781 0.57096-0.52713 0.31767-0.76542 0.31398-1.3878 0.45804-0.88315 0.13906-0.70933 0.13368-1.5559 0.18726-0.1947 0.0123-0.38965 0.0303-0.58469 0.026-0.91907-0.0201-1.7604-0.38669-2.5773-0.77681-0.98981-0.56498-1.0231-0.54218-1.8912-1.1855-0.20675-0.15322-0.4014-0.3221-0.6021-0.48315-0.16898-0.14116-0.33019-0.29216-0.50691-0.42347-0.44317-0.32929-0.67778-0.42433-1.1774-0.68466-0.3801-0.14223-0.95373-0.36731-1.3447-0.47064-0.54678-0.14452-1.1186-0.17974-1.6717-0.29529-0.21249-0.0444-0.42363-0.095-0.63545-0.1425-0.25753-0.0164-0.51607-0.0772-0.77259-0.0492-1.1192 0.1224-1.897 1.0323-2.2995 2.0133-0.0808 0.19711-0.12429 0.40756-0.18644 0.61134l0.97619 0.21693z" opacity=".99" style="paint-order:markers stroke fill"/>
   <path d="m152.69 125.37c0.84245-0.77491 1.7237-1.4999 2.6682-2.1474 0.57128-0.39167 1.0371-0.70368 1.6624-0.97256 0.13544-0.0582 0.28189-0.0865 0.42283-0.12972 0.55468 0.0541 1.1013-0.0875 1.6464-0.16294 0.34939-0.0484 0.701-0.0792 1.0512-0.12155 0.9148-0.0532 1.8462-0.0491 2.7472 0.13919 0.19684 0.0411 0.39024 0.0973 0.58536 0.14598 0.70011 0.25585 1.4404 0.32009 2.1757 0.38829 0.18333 0.017 0.36794 0.0231 0.55012 0.0497 0.33979 0.0497 0.68132 0.16263 1.0086 0.25725 0.75189 0.21036 1.4719 0.52049 2.2219 0.73625 0.32195 0.0926 0.38839 0.0956 0.71966 0.15488 0.13274 0.021 0.26548 0.042 0.39822 0.0631 0.10974 0.0239 0.21862 0.0521 0.32923 0.0716 0.12609 0.0222 0.52885 0.0339 0.65737 0.13962 0.0259 0.0213 0.0466 0.0485 0.0698 0.0727 0.24306 0.17579 0.43164 0.41621 0.67991 0.58574 0.10962 0.0749 0.23145 0.13011 0.34598 0.19723 0.39942 0.23407 0.31939 0.19036 0.72344 0.46844 0.21296 0.15378 0.33895 0.20582 0.47736 0.39821 4e-3 5e-3 -0.0145 0.0122-0.0188 7e-3 -0.0208-0.0247-0.0593-0.11453-0.0466-0.0849 0.0574 0.13432 0.0915 0.28365 0.18093 0.39913 0.0916 0.11822 0.23187 0.18892 0.34781 0.28339-0.0181 0.0809 0.21248 0.0636 0.22466 0.15351 3e-3 0.0235-0.0409-0.0239-0.0613-0.0359 0.0225 0.0338 0.0451 0.0675 0.0677 0.10133l0.81896-0.57385c-0.0849-0.088-9e-3 -8e-3 -0.19523-0.26805-0.092-0.0986-0.1996-0.15285-0.31207-0.21693-0.0126 0.0114-0.0259 0.022-0.0377 0.0343-0.0131 0.0137-0.0299 0.0611-0.0369 0.0434-0.0373-0.0945-0.0266-0.20346-0.0637-0.29804-0.13653-0.34823-0.4962-0.561-0.77978-0.76754-0.3578-0.2443-0.45026-0.32002-0.81466-0.52404-0.0591-0.0331-0.12688-0.0501-0.1832-0.0877-0.25899-0.17283-0.44987-0.43075-0.70649-0.60694-0.0936-0.0658-0.1806-0.14206-0.28073-0.19735-0.26429-0.14595-0.55815-0.14946-0.84647-0.20049-1.4786-0.26166 0.7014 0.0897-0.76502-0.14199-0.9801-0.16759-1.8847-0.60032-2.8388-0.86748-0.46658-0.13258-0.72058-0.2225-1.1939-0.29187-0.18137-0.0266-0.36512-0.0329-0.54766-0.0495-0.68723-0.0624-1.3758-0.11685-2.0288-0.36348-0.22103-0.054-0.44019-0.1163-0.6631-0.16191-0.99398-0.20336-2.0207-0.20986-3.029-0.14512-0.36447 0.0441-0.73028 0.0774-1.094 0.12766-0.32005 0.0442-0.61239 0.11216-0.93171 0.14415-0.11282 0.0113-0.22648 0.0117-0.33965 0.0187-0.17301 0.0108-0.34592 0.0233-0.51887 0.0349-0.1895 0.0632-0.3855 0.1096-0.56851 0.18971-0.66678 0.29185-1.1911 0.63784-1.7962 1.0542-0.97269 0.6692-1.8824 1.4155-2.751 2.2144 0 0 0.66897 0.7433 0.66897 0.7433z" opacity=".99" style="paint-order:markers stroke fill"/>
   <path d="m136.06 125.59c0.0615-0.46168 0.0768-0.92731 0.0711-1.3925-4e-3 -0.30165-4e-3 -0.55781-0.0714-0.85479-0.0397-0.17429-0.10378-0.34213-0.15567-0.51319-0.27157-0.72393-0.58809-1.4733-1.1657-2.0106-0.24323-0.22624-0.49494-0.37011-0.77201-0.54714-0.68986-0.35438-0.5264-0.29787-1.3103-0.57556-0.21303-0.0755-0.42527-0.15568-0.64463-0.21006-0.20863-0.0517-0.69604-0.14604-0.95213-0.0729-0.12553 0.0359-0.23145 0.1209-0.34717 0.18135-0.0433 0.0457-0.08 0.0987-0.12991 0.137-3e-3 2e-3 -0.15035 0.0287-0.15057 0.0287-6e-3 -1.9e-4 -9e-3 -0.0177-3e-3 -0.0181 0.0708-4e-3 0.19094 0.0729 0.21256 5e-3 0.0236-0.0739-0.10682-0.11256-0.16023-0.16884-0.10917-0.0825-0.21817-0.16517-0.32752-0.24741-0.0969-0.0729-0.1999-0.13807-0.29112-0.21789-0.26471-0.23162-0.43851-0.5435-0.637-0.82786-0.11118-0.1242-0.14598-0.27448-0.20595-0.42201-0.0413-0.10164-0.0933-0.19867-0.13533-0.30002-0.12023-0.29009-0.12209-0.33035-0.21185-0.64064-0.0881-0.41473-0.34973-0.76671-0.46606-1.1704-0.0228-0.079-0.0219-0.16288-0.0313-0.24451-0.0362-0.31467-0.0276-0.21061-0.0264-0.51877 0.0416-0.48726 0.0451-0.97641 0.0301-1.465-0.0122 0.19182 0.0134 0.10746-0.0627 0.25699 0 0-0.61406-0.78927-0.61406-0.78927-0.30603 0.32209-0.19793 0.13455-0.32279 0.56349 0.0153 0.48039 7e-3 0.96063-0.0306 1.4399 5e-3 0.38193 0.0219 0.76147 0.1306 1.1319 0.10933 0.37266 0.34661 0.69651 0.43379 1.0777 0.0412 0.13849 0.0774 0.27858 0.12376 0.41546 0.19391 0.57319 0.0674 0.15909 0.23873 0.57284 0.0959 0.23165 0.16949 0.46649 0.3307 0.66561 0.1105 0.15747 0.20902 0.32332 0.32373 0.47775 0.28107 0.37843 0.63443 0.68935 1.0333 0.93824 0.25412 0.25813 0.29791 0.35629 0.71131 0.46624 0.2372 0.0631 0.75354-0.21267 0.88972-0.38827-0.0667 0.0183-0.13391 0.0347-0.20003 0.0549-0.0368 0.0112 0.0735-0.0301 0.11194-0.028 0.14319 8e-3 0.28711 0.0231 0.42637 0.0573 0.20513 0.0504 0.40325 0.12615 0.60279 0.19542 0.68674 0.23842 0.52121 0.1787 1.1261 0.48392 0.2782 0.17441 0.61253 0.3506 0.81579 0.61953 0.3142 0.41569 0.52205 0.91204 0.70373 1.3952 0.0399 0.119 0.089 0.23529 0.1197 0.35698 0.0623 0.24706 0.0571 0.4534 0.0608 0.7093 6e-3 0.41787-6e-3 0.83622-0.0611 1.2511l0.98996 0.14142z" opacity=".99" style="paint-order:markers stroke fill"/>
  </g>
  <ellipse transform="matrix(.98215 .18809 -.12443 .99223 0 0)" cx="156.99" cy="82.688" rx="17.729" ry="6.678" fill-opacity=".23239" opacity=".99" style="paint-order:markers stroke fill"/>
  <g fill="none" stroke="#2d392d" stroke-width=".26458px">
   <path d="m142.71 111.86c4.5065 2.5317-1.4234 9.0131 0.059 11.303 1.3174 2.0354 4.0275 1.722 4.5302 4.5071"/>
   <path d="m140.3 110.75c0.18587 0.25278 0.49158 0.45161 0.55761 0.75834 0.0587 0.2725-0.55889 0.0495-0.82636 0.12796-3.7101 1.088-3.9026-1.1402-6.8027-1.3792-1.531-0.12616-2.8737 0.90039-4.2056 1.5213"/>
   <path d="m140.46 107.94c-0.19038-2.6613-2.1589-4.168-4.3826-5.2393-1.6396-0.78987-1.1182 0.86115-2.0511-0.79621"/>
   <path d="m145.74 110.75c2.5438-0.63593 5.3976-0.32276 8.116-0.99527 2.1824-0.53988 3.8249-3.2766 6.2567-1.6137"/>
   <path d="m144.28 115.91c0.84951 1.2826 1.7708 1.7887 1.7708 3.3697"/>
   <path d="m147.47 110.43c0.74592 0.19738 0.82641 0.81777 0.98868 1.5213 1.1137 4.8289 2.1712 1.5375 4.1613 3.455"/>
   <path d="m139.42 111.83c-1.4277 1.4396-7.5298 1.4114-7.4815 3.391"/>
   <path d="m139.79 105.6c-1.8702-0.25878-3.4666 1.4693-5.3418 1.1588"/>
   <path d="m138.82 104.4c0.57946-0.68275 0.85675-1.6512 0.84112-1.8697"/>
   <path d="m137.95 109.05c2.5151-0.085 3.9662 2.3251 6.0206 3.2488 0.78737 0.35404 1.7704-0.4978 2.42-0.17061 0.35343 0.17801 0.55597 0.8443 0.70831 1.1943"/>
   <path d="m140.68 115.13c-0.0282-0.82038 1.3906-4.7584 2.1102-5.3318 0.85571-0.68179 2.0066-0.87224 2.8037-1.5356"/>
  </g>
 </g>
 <g transform="translate(6.7352)">
  <g transform="matrix(.88053 .08021 -.083577 .84506 30.911 5.436)" stroke="#000">
   <path d="m86.855 124 16.001-22.562 25.349 22.822-11.314 15.987z" fill="#ccc" stroke-linecap="round" stroke-width=".17651"/>
   <path d="m87.903 130.55-1.0487-6.552" fill="none" stroke-linejoin="round" stroke-width=".17695"/>
   <g stroke-linejoin="round">
    <path d="m87.922 130.06c-0.17389-0.7719-1.0209-5.9648-0.96236-5.9666 0.03955-1e-3 0.92221 0.55105 1.8465 1.0547 0.9243 0.50363 1.7599 0.95445 1.8568 1.0018l0.17624 0.0861-2.8677 4.0436z" fill="#730000" stroke-width=".044237"/>
    <path d="m88.983 125.07c-1.0642-0.57853-1.9393-1.0696-1.9446-1.0912-0.0053-0.0216 3.5436-5.0358 7.8866-11.143l7.8963-11.103 0.49689 3.0999 0.4969 3.0999-12.897 18.189z" fill="#730000" stroke-width=".044237"/>
    <g stroke-linecap="round" stroke-width=".265">
     <path d="m103.57 108.76c-0.4171-0.0376-0.83694-0.0338-1.2526 0.0193-0.13303 0.017-0.26495 0.0418-0.39742 0.0626-0.68013 0.14501-1.3854 0.36696-1.9193 0.83421-0.10446 0.0914-0.19278 0.1998-0.28917 0.29969-0.0794 0.12068-0.16873 0.23535-0.23809 0.36204-0.21111 0.3856-0.32275 0.82098-0.41497 1.2472-0.0299 0.13819-0.0579 0.2769-0.0803 0.4165-0.0236 0.14636-0.0385 0.29398-0.0577 0.44097-0.0825 0.95937-0.0547 1.924-0.0231 2.8851 2e-3 0.39236 0.0806 0.79996-0.0697 1.1747l0.94337 0.33174c0.0217-0.0655 0.0472-0.12995 0.0652-0.19663 0.11838-0.43926 0.0769-0.89435 0.0606-1.3427-0.0299-0.90758-0.0568-1.8183 0.0155-2.7246 0.016-0.12676 0.028-0.25409 0.048-0.38029 0.0307-0.19453 0.10383-0.54077 0.15487-0.73294 0.0509-0.19176 0.11743-0.40634 0.20483-0.58676 0.0358-0.0739 0.0824-0.14211 0.12366-0.21317 0.0534-0.0611 0.10107-0.12776 0.16026-0.1833 0.14885-0.13968 0.31097-0.23624 0.49391-0.32607 0.3103-0.15238 0.64243-0.24919 0.98011-0.3183 0.11273-0.0183 0.22499-0.0398 0.33818-0.055 0.34183-0.0459 0.68648-0.0497 1.03-0.0221 0 0 0.12404-0.99228 0.12404-0.99228z" fill="#edd069"/>
     <path d="m101.9 111.24c-0.49122-0.03-0.99655-0.0431-1.4682 0.12303-0.12691 0.0447-0.2462 0.10867-0.36931 0.163-0.12008 0.0768-0.24445 0.14731-0.36023 0.23046-0.2507 0.18004-0.46936 0.3821-0.69096 0.59613-0.26675 0.25764-0.38154 0.38969-0.6384 0.65378-0.0988 0.10161-0.19928 0.20163-0.29892 0.30245-0.1012 0.10269-0.20234 0.20544-0.30359 0.30808-0.18598 0.18855-0.43823 0.44179-0.62079 0.63427-0.2937 0.30967-0.57546 0.63013-0.85764 0.95022-0.1737 0.21488-0.38987 0.4776-0.55418 0.69969-0.18331 0.24778-0.41271 0.5887-0.58473 0.84231-0.25778 0.38007-0.36624 0.54244-0.62448 0.92682-0.41222 0.61987-0.81062 1.2539-1.1056 1.9396-0.19362 0.45005-0.19932 0.51907-0.33936 0.98836-0.15636 0.59362-0.23285 1.2055-0.23922 1.819-0.0026 0.25526 0.0095 0.40931 0.02318 0.6577 0.0145 0.2809 0.06902 0.55658 0.11899 0.83252l0.98388-0.17881c-0.0429-0.23538-0.0915-0.47026-0.10445-0.70992-0.0117-0.20358-0.0237-0.35981-0.0222-0.56636 4e-3 -0.52957 0.066-1.0583 0.19901-1.5713 0.11669-0.40149 0.12036-0.45833 0.28554-0.84653 0.27231-0.63996 0.64707-1.2288 1.0303-1.8066 0.26728-0.39783 0.35482-0.52907 0.62112-0.92185 0.14364-0.21186 0.39213-0.58078 0.54816-0.79201 0.14567-0.19719 0.35929-0.45884 0.51421-0.65138 0.27162-0.30817 0.54257-0.61705 0.82527-0.91521 0.18013-0.18999 0.43226-0.44309 0.61528-0.62864 0.10094-0.10232 0.20177-0.20475 0.30266-0.30713 0.10326-0.10454 0.20733-0.20829 0.30978-0.31362 0.43576-0.44803 0.85534-0.92509 1.3866-1.2642 0.19344-0.0961 0.22295-0.12614 0.43378-0.17139 0.29123-0.0625 0.59034-0.0398 0.88505-0.0275 0 0 0.0995-0.99504 0.0995-0.99504z" fill="#edd069"/>
     <path d="m99.133 115.65c-0.21666-0.0556-0.32883-0.0925-0.57261-0.10701-0.58907-0.0351-1.1749 0.0741-1.7289 0.27205-0.23046 0.0824-0.45017 0.19214-0.67527 0.2882-0.22094 0.12008-0.44714 0.23096-0.66283 0.36025-0.64373 0.38587-1.2575 0.84968-1.7681 1.4024-0.46901 0.50766-0.53217 0.66599-0.90603 1.2528-0.12743 0.24549-0.26309 0.48688-0.38228 0.73647-0.1263 0.2645-0.24177 0.53415-0.35383 0.80498-0.32391 0.78283-0.60377 1.5848-0.81092 2.4068-0.05558 0.22052-0.09794 0.44417-0.14691 0.66626-0.11521 0.68463-0.19718 1.4032-0.025 2.0867 0.01511 0.0599 0.03734 0.11784 0.05601 0.17677 0.03431 0.062 0.06861 0.12411 0.10292 0.18616l0.83288-0.55346c0.0042 0.0168 0.0084 0.0336 0.01265 0.0503-0.05803-0.15419-0.08153-0.30951-0.09258-0.47476-0.0282-0.4217 0.01259-0.84274 0.08994-1.2575 0.04447-0.20399 0.08276-0.40942 0.1334-0.61197 0.19426-0.77692 0.45904-1.5338 0.76357-2.2739 0.10347-0.25147 0.2103-0.50174 0.32649-0.7476 0.10593-0.22416 0.22636-0.44118 0.33954-0.66176 0.30683-0.49241 0.36802-0.64154 0.75556-1.0676 0.59836-0.65786 1.3487-1.1566 2.133-1.5637 0.18611-0.082 0.36778-0.17492 0.55833-0.24599 0.4156-0.15502 0.86675-0.25704 1.3128-0.24117 0.16705 6e-3 0.24483 0.0299 0.39209 0.0649 0 0 0.31622-0.94869 0.31622-0.94869z" fill="#e6e6e6"/>
    </g>
   </g>
   <g fill="#edd069" stroke-linecap="round" stroke-linejoin="round" stroke-width=".265">
    <path d="m97.726 118.89c-0.21573-0.0751-0.34837-0.12988-0.58988-0.165-0.62479-0.0909-1.1845-0.0192-1.7601 0.25736-0.23227 0.11158-0.43976 0.26873-0.65964 0.40309-0.20463 0.17828-0.42046 0.34444-0.61387 0.53483-0.55812 0.54937-1.0484 1.214-1.3649 1.9328-0.27535 0.62517-0.26024 0.75894-0.37874 1.4166-0.0055 0.2126-0.02524 0.42531-0.01659 0.6378 0.0158 0.3875 0.10094 0.88036 0.29811 1.2256 0.04477 0.0784 0.1077 0.1449 0.16156 0.21735l0.76488-0.64417c-0.0672-5e-3 -0.0431 3e-3 -0.092-0.12874-0.13493-0.36453-0.15069-0.75577-0.13021-1.1397 0.0821-0.51903 0.0671-0.62152 0.27937-1.1218 0.26213-0.61789 0.67264-1.1709 1.1415-1.647 0.15257-0.15495 0.32267-0.29162 0.48401-0.43743 0.15826-0.10391 0.30784-0.22242 0.47477-0.31173 0.52306-0.27984 1.0675-0.30752 1.6171-0.10668 0 0 0.38462-0.92308 0.38462-0.92308z"/>
    <path d="m102.49 110.25c-0.45848-0.28621-0.99858-0.38921-1.5298-0.43791-0.20717-0.019-0.41538-0.0241-0.62308-0.0362-0.74517-0.0177-1.4908 0.0398-2.2228 0.18232-0.25816 0.0503-0.51578 0.10644-0.76799 0.18104-0.70665 0.20901-0.85613 0.31526-1.5182 0.63642-0.2378 0.15971-0.4877 0.30274-0.71339 0.47914-0.70046 0.5475-1.251 1.239-1.6597 2.0264-0.34994 0.67423-0.39341 0.92127-0.61729 1.6366-0.18811 0.75316-0.26908 1.5249-0.15744 2.2971 0.06729 0.4655 0.19636 0.87316 0.366 1.3086 0.06819 0.17504 0.15152 0.34379 0.22728 0.51569 0.19417 0.45232 0.50246 0.84736 0.68597 1.3044 0.0793 0.19749 0.0942 0.28689 0.14551 0.49227 0.047 0.22935 0.0736 0.46169 0.0541 0.69545-9e-3 0.11363-3e-3 0.0841-0.025 0.15706l0.97692 0.21362c0.0101-0.0512 0.0228-0.10187 0.0303-0.15347 0.0563-0.38796 0.0111-0.78102-0.0679-1.1622-0.0775-0.29413-0.0899-0.38032-0.20732-0.66482-0.1858-0.45015-0.47482-0.84692-0.67859-1.2882-0.066-0.14738-0.13799-0.29223-0.19804-0.44213-0.13777-0.34392-0.25332-0.68819-0.31233-1.0556-0.10364-0.64543-0.0374-1.2911 0.11604-1.9226 0.19057-0.62613 0.22381-0.83058 0.52172-1.4213 0.33365-0.66162 0.7829-1.2451 1.3622-1.71 0.1866-0.14978 0.39379-0.27191 0.59067-0.40786 0.5591-0.27662 0.7121-0.3816 1.3099-0.56169 0.22674-0.0683 0.45853-0.11968 0.69079-0.16586 0.66254-0.13173 1.3377-0.18598 2.0127-0.17195 0.54761 0.0295 1.1283 0.0308 1.6277 0.2894 0 0 0.58123-0.81373 0.58123-0.81373z"/>
    <path d="m96.435 121.22c-0.70802-0.18846-1.4188-0.3777-2.1432-0.49377-0.24779-0.0397-0.49745-0.0667-0.74618-0.10005-0.73363-0.0754-1.4741-0.0868-2.2084-0.0127-0.3934 0.0397-0.81096 0.10572-1.1886 0.22948-0.1761 0.0577-0.34264 0.14131-0.51395 0.21196-0.14935 0.0958-0.30826 0.17811-0.44805 0.28739-0.50918 0.39802-0.96716 1.0669-1.2023 1.6662-0.06815 0.17368-0.11211 0.35591-0.16816 0.53386-0.02988 0.19104-0.07497 0.38032-0.08964 0.57313-0.04039 0.53081 0.02849 1.0971 0.22478 1.594 0.17684 0.44773 0.27347 0.5205 0.56496 0.91 0.61317 0.66516 1.3844 1.1451 2.1766 1.5672 0.14106 0.0752 0.28598 0.14287 0.42897 0.2143 0 0 0.4459-0.89509 0.4459-0.89509-0.12935-0.0642-0.26043-0.12508-0.38804-0.19271-0.67348-0.35692-1.3351-0.756-1.8717-1.3045-0.1967-0.24394-0.2798-0.31072-0.40162-0.59542-0.14959-0.3496-0.21024-0.77503-0.19046-1.1529 0.0075-0.1432 0.03783-0.2843 0.05674-0.42645 0.03878-0.13314 0.06788-0.26949 0.11633-0.39942 0.09359-0.251 0.2288-0.48999 0.37965-0.71043 0.12367-0.18072 0.302-0.40505 0.47126-0.54884 0.08849-0.0752 0.19021-0.13319 0.28532-0.19978 0.1239-0.0546 0.2436-0.11997 0.3717-0.16384 0.32205-0.11031 0.67054-0.16519 1.0071-0.2004 0.66803-0.0699 1.3419-0.0608 2.0097 6e-3 0.23068 0.0304 0.46225 0.0549 0.69206 0.0913 0.71678 0.11371 1.4187 0.30495 2.1197 0.48903 0 0 0.20953-0.97781 0.20953-0.97781z"/>
    <path d="m98.934 115.1c-0.83175 0.14151-1.6139 0.46863-2.3464 0.88024-0.22071 0.12402-0.43432 0.26029-0.65148 0.39043-0.22651 0.14642-0.45402 0.2913-0.67954 0.43925-0.10075 0.0661-1.3029 0.86714-1.4029 0.93557-0.44581 0.30509-0.94347 0.65188-1.3589 0.99885-0.21716 0.18138-0.42014 0.37909-0.63021 0.56864-0.57226 0.63847-0.67638 0.70803-1.1556 1.4353-0.33765 0.51244-0.64142 1.0898-0.9212 1.6355-0.12743 0.24853-0.24544 0.50182-0.37237 0.75061-0.10922 0.21408-0.22402 0.42527-0.33602 0.6379-0.24116 0.39383-0.48823 0.85276-0.95072 1.0271-0.12918 0.0487-0.26818 0.0704-0.40557 0.0839-0.50828 0.0501-0.76618-0.01-1.2908-0.0668-0.85763-0.12843-1.694-0.36055-2.5396-0.54631-0.54038-0.11871-0.97725-0.21167-1.525-0.26224-0.20047-0.0185-0.40231-0.0163-0.60346-0.0246-0.48747 0.0224-0.861 0.0933-1.2806 0.35079-0.37337 0.2291-0.67854 0.55126-0.98257 0.86079-0.37368 0.40173-0.71674 0.83688-0.95533 1.3339-0.12387 0.25802-0.13509 0.32807-0.21639 0.59312-0.07246 0.27819-0.04149 0.14332-0.0946 0.4042l0.98073 0.19537c0.03744-0.19397 0.01437-0.089 0.07232-0.31431 0.05081-0.17887 0.05915-0.23288 0.14098-0.40909 0.19213-0.41374 0.48008-0.77093 0.78743-1.1042 0.23424-0.24105 0.27893-0.29901 0.52857-0.51149 0.09823-0.0836 0.27287-0.22378 0.39835-0.2803 0.2172-0.0978 0.33723-0.0894 0.5843-0.11944 0.16921 5e-3 0.33898 2e-3 0.50762 0.0164 0.51443 0.0455 0.92047 0.13285 1.4301 0.24482 0.88728 0.19496 1.7649 0.43881 2.6659 0.56741 0.61575 0.059 1.0401 0.14435 1.6526 0.0375 0.23765-0.0415 0.4739-0.10893 0.69193-0.21216 0.3921-0.18565 0.68393-0.4939 0.93613-0.83584 0.13138-0.17813 0.23508-0.37511 0.35262-0.56267 0.11569-0.21984 0.23418-0.43824 0.34708-0.65954 0.12317-0.24142 0.23768-0.48719 0.36106-0.72851 0.25427-0.49731 0.54279-1.0485 0.84793-1.5172 0.42252-0.649 0.51211-0.70926 1.0155-1.2787 0.1901-0.17283 0.37341-0.35345 0.57031-0.5185 0.39794-0.33358 0.87616-0.66655 1.3033-0.95884 0.0951-0.0651 1.2898-0.86126 1.3903-0.92731 0.2162-0.14199 0.43427-0.28114 0.6514-0.4217 0.20039-0.12072 0.39769-0.24673 0.60118-0.36215 0.63852-0.36221 1.319-0.65522 2.0461-0.77932l-0.1644-0.9864z"/>
    <path d="m97.186 123.79c0.0785-0.53807 0.0784-1.0858-0.0234-1.6214-0.0409-0.21521-0.10313-0.42581-0.15469-0.63871-0.0721-0.22672-0.13714-0.45582-0.21639-0.68015-0.32359-0.91608-0.75384-1.8753-1.3631-2.6393-0.16252-0.2038-0.34995-0.38642-0.52492-0.57962-0.20982-0.17666-0.40827-0.3678-0.62946-0.52998-0.72144-0.52897-1.5508-0.905-2.4176-1.122-0.85096-0.21302-1.1092-0.19032-1.9866-0.24905-0.34257 0.0159-0.6864 0.0142-1.0277 0.0476-0.65439 0.064-1.294 0.19605-1.9225 0.388-0.52341 0.15987-1.1278 0.39744-1.5997 0.68266-0.24844 0.15016-0.4721 0.33795-0.70816 0.50693-1.2359 1.0547-1.9891 2.5316-3.1144 3.6875-0.19817 0.20358-0.41929 0.38349-0.62894 0.57523-0.58001 0.38095-0.69438 0.51514-1.3663 0.72067-0.59361 0.18159-1.2406 0.24376-1.8549 0.28204-0.95168 0.0593-1.4825 0.0355-2.4455 0.0254-0.99491-0.0594-1.417-0.0576-2.384-0.21566-0.3092-0.0505-0.61749-0.11124-0.91964-0.19408-0.39871-0.1093-0.7891-0.25537-1.1144-0.51781-0.10593-0.0855-0.18334-0.20122-0.27501-0.30183-0.06061-0.11235-0.13122-0.21986-0.18184-0.33705-0.11407-0.26407-0.20105-0.62824-0.26422-0.9023-0.11026-0.47839-0.20119-0.9617-0.28703-1.445l-0.98453 0.17522c0.08993 0.50434 0.07011 0.41291 0.1813 0.9473 0.03961 0.19038 0.07667 0.38135 0.12153 0.57056 0.08955 0.37767 0.19776 0.81241 0.37195 1.1628 0.09273 0.18652 0.22036 0.35353 0.33054 0.5303 0.1579 0.15266 0.29779 0.3265 0.47372 0.45799 0.4208 0.31451 0.92162 0.50332 1.4233 0.6386 0.3292 0.0888 0.66496 0.15335 1.0016 0.20769 1.0142 0.16371 1.4566 0.16203 2.4966 0.22317 0.97166 9e-3 1.5912 0.0349 2.5557-0.0303 0.73264-0.0495 1.4432-0.12627 2.1449-0.35624 0.81057-0.26565 0.96205-0.43743 1.6537-0.90589 0.23495-0.21773 0.48198-0.4231 0.70484-0.65319 0.4532-0.46791 0.87286-1.0266 1.2671-1.5425 0.37026-0.4845 0.72921-0.99725 1.1386-1.4516 0.17128-0.19012 0.3623-0.36149 0.54345-0.54224 0.19035-0.14106 0.3696-0.29848 0.57104-0.42318 0.41348-0.25597 0.93866-0.46375 1.3985-0.60691 0.564-0.17558 1.1341-0.29628 1.722-0.35751 0.30375-0.0316 0.60993-0.0323 0.9149-0.0484 0.77356 0.0462 1.0004 0.0248 1.7496 0.20489 0.74296 0.1786 1.4558 0.49176 2.0782 0.93669 0.18659 0.1334 0.35449 0.29117 0.53174 0.43675 0.14771 0.15923 0.3063 0.30901 0.44315 0.47768 0.55108 0.67921 0.93799 1.5524 1.23 2.3707 0.0724 0.20291 0.13201 0.41017 0.19801 0.61525 0.0448 0.17722 0.0981 0.35249 0.13437 0.53166 0.0912 0.45077 0.0905 0.91143 0.0222 1.3647l0.99228 0.12404z"/>
    <path d="m92.217 129.73c-0.47154-0.33789-0.7732-0.84188-1.0598-1.3348-0.38374-0.66-0.56138-1.036-0.91784-1.7363-0.78945-1.5857-1.6261-3.1571-2.6698-4.5932-0.49939-0.68711-0.81829-1.0323-1.3588-1.6578-0.90908-1.0154-1.9533-1.8988-3.0747-2.6709-0.27369-0.18845-0.55502-0.36556-0.83253-0.54833-1.1915-0.71487-2.4578-1.3834-3.8532-1.5848-1.1131-0.16057-1.3449-0.0582-2.4686 0.0713-0.41376 0.11415-0.83746 0.19701-1.2413 0.34244-1.8394 0.66242-3.3484 1.9501-4.6227 3.4015-0.36004 0.4101-0.68424 0.85033-1.0264 1.2755-1.4752 2.0361-2.7663 4.1986-4.2998 6.1938-0.99811 1.2987-1.3081 1.5968-2.385 2.7907-1.3533 1.3216-2.7712 2.8724-4.5342 3.6577-0.1952 0.087-0.40159 0.14624-0.60238 0.21935-0.66668 0.16265-0.35248 0.0942-0.94138 0.21078 0 0 0.19549 0.9807 0.19549 0.9807 0.67176-0.13477 0.30644-0.0533 1.0938-0.25394 0.69703-0.26271 0.8325-0.28017 1.5002-0.6819 1.5269-0.91875 2.7825-2.2121 4.0313-3.4632 1.1121-1.2347 1.4197-1.5294 2.4508-2.8718 1.5232-1.9832 2.8109-4.1288 4.271-6.1562 0.32283-0.40318 0.6289-0.82037 0.96849-1.2095 1.151-1.3191 2.5083-2.5139 4.171-3.1307 0.35486-0.13164 0.72775-0.20835 1.0916-0.31252 0.95418-0.12287 1.1753-0.21676 2.1237-0.0895 1.2796 0.1717 2.4363 0.7957 3.5278 1.4456 0.26591 0.17479 0.53542 0.34422 0.79772 0.52437 1.0581 0.72668 2.0447 1.5572 2.9029 2.5137 0.50389 0.58179 0.82405 0.92921 1.288 1.5657 1.021 1.4008 1.8348 2.937 2.6059 4.485 0.35789 0.70217 0.56942 1.1458 0.96072 1.8122 0.23759 0.40458 0.47886 0.78795 0.78859 1.1408 0.20206 0.23022 0.33709 0.32057 0.56468 0.4963 0 0 0.5547-0.83205 0.5547-0.83205z"/>
    <path d="m96.693 126.33c0.62027-1.5134 0.82068-3.1515 1.0473-4.7586 0.24159-2.0158 0.54626-4.1568-0.19605-6.1137-0.15487-0.40826-0.38944-0.78165-0.58416-1.1725-0.27643-0.35283-0.52083-0.73329-0.82928-1.0585-0.98881-1.0426-2.5649-2.0265-4.0096-2.249-0.30985-0.0477-0.62634-0.0287-0.93952-0.0431-0.33184 0.0637-0.67147 0.0955-0.99552 0.19125-1.4525 0.42932-2.9322 1.4982-4.0588 2.4847-0.32399 0.2837-0.626 0.59156-0.93899 0.88734-2.1027 2.1924-3.6227 4.8505-5.089 7.4891-0.90128 1.5951-1.6508 3.2682-2.4922 4.8943-0.16455 0.31802-0.32222 0.64003-0.50194 0.94974-0.14919 0.2571-0.32259 0.49936-0.48388 0.74903-0.39117 0.44884-0.53474 0.70154-1.0734 0.98037-1.4376 0.74417-3.5253 0.47821-5.0578 0.35167-1.5047-0.23176-1.5354-0.18815-2.9188-0.57002-0.31537-0.0871-0.6235-0.1985-0.93525-0.29775 0 0-0.30226 0.95323-0.30226 0.95323 0.33338 0.10531 0.6629 0.22375 1.0002 0.31595 1.4572 0.39834 1.5022 0.35547 3.0754 0.59532 0.59233 0.0472 1.1831 0.1232 1.777 0.14164 1.3243 0.0411 2.7683-0.0198 3.9571-0.68666 0.65871-0.36948 0.84582-0.68675 1.319-1.2428 0.17565-0.27425 0.36355-0.54102 0.52694-0.82274 0.18236-0.31444 0.3424-0.64132 0.50941-0.96417 0.83556-1.6152 1.5803-3.2768 2.4748-4.8614 0.70696-1.273 0.68852-1.2684 1.4572-2.5338 0.78397-1.2906 1.5922-2.5677 2.56-3.731 0.28216-0.33916 0.59021-0.65591 0.88532-0.98387 0.29374-0.27889 0.57709-0.56915 0.88122-0.83668 1.0159-0.89369 2.3306-1.8586 3.6311-2.2821 0.24691-0.0804 0.50666-0.11411 0.75998-0.17116 0.24168 4e-3 0.48552-0.0201 0.72503 0.0125 1.2386 0.1685 2.618 1.0274 3.4749 1.9028 0.26678 0.27253 0.4802 0.59261 0.7203 0.88891 0.17023 0.3273 0.3756 0.6386 0.5107 0.9819 0.71633 1.8202 0.38483 3.8339 0.17078 5.7117-0.21345 1.5153-0.39534 3.0618-0.9709 4.492l0.91382 0.40614z"/>
    <path d="m99.805 117.56c-1.2785 1.3834-2.772 2.5487-4.2389 3.7223-1.2298 0.96151-2.5157 1.8502-3.8337 2.686-0.76219 0.48341-1.7192 1.0636-2.526 1.4794-0.38688 0.19939-0.78734 0.37126-1.181 0.55689-1.3368 0.56961-2.7623 0.93577-4.2225 0.93383-0.691-8e-4 -0.93982-0.0675-1.6081-0.17574-1.1407-0.22123-2.2385-0.60906-3.3359-0.9819-1.5181-0.51577-0.56186-0.19417-2.1044-0.70934-0.34534-0.1142-0.68942-0.2323-1.036-0.34261-0.21154-0.0673-1.7792-0.54149-2.0013-0.60978-1.2068-0.37092-2.4074-0.7605-3.6078-1.1516-2.0325-0.66615-4.1021-1.212-6.2022-1.6187-1.2538-0.24281-1.7293-0.29607-2.9661-0.47281-1.0503-0.1223-2.1037-0.22115-3.1606-0.26003-0.67423-0.0248-1.1039-0.0369-1.7797 0.0351-0.30016 0.0319-0.59668 0.0919-0.89501 0.13791-1.0463 0.23735-2.0644 0.65727-2.7072 1.5614-0.33305 0.46845-0.41396 0.79509-0.60956 1.3253-0.20176 0.75053-0.14512 0.47818-0.27647 1.1836-0.07627 0.40961 0.02627 0.28505-0.13654 0.44072l0.8712 0.49093c0.06125-0.12788 0.13902-0.24909 0.18376-0.38364 0.03862-0.11612 0.04203-0.24112 0.06403-0.3615 0.11464-0.62726 0.0591-0.36149 0.23471-1.0309 0.13424-0.38315 0.20842-0.67239 0.42892-1.0147 0.47008-0.72973 1.2964-1.0294 2.1018-1.2233 0.26718-0.0426 0.53262-0.098 0.80153-0.12775 0.63729-0.0706 1.0269-0.0577 1.6677-0.0345 1.0267 0.0372 2.0498 0.13337 3.0701 0.25129 1.204 0.17165 1.6801 0.2252 2.8998 0.46105 2.0656 0.39944 4.1012 0.93572 6.1001 1.5913 1.2068 0.39311 2.4136 0.78467 3.6268 1.1576 0.17189 0.0528 1.8075 0.54812 1.9781 0.6024 0.34567 0.11001 0.68882 0.22779 1.0332 0.34169 1.5609 0.52127 0.55904 0.18446 2.1001 0.70787 1.1509 0.39091 2.3028 0.79536 3.5002 1.0225 0.76565 0.11928 1.0275 0.1899 1.8195 0.18661 1.5893-7e-3 3.1407-0.40541 4.5951-1.0282 0.41357-0.19587 0.83411-0.37765 1.2407-0.5876 0.82535-0.42617 1.8066-1.0211 2.5871-1.5164 1.3444-0.85317 2.6559-1.7605 3.9104-2.7417 1.5189-1.2156 3.0653-2.4236 4.3824-3.863l-0.76822-0.64018z" style="paint-order:normal"/>
    <path d="m97.935 125.25c-0.17281-2.1029-0.0607-4.2184-0.19266-6.3225-0.0277-0.4421-0.084-0.88194-0.12603-1.3229-0.0851-0.40115-0.1295-0.81316-0.25533-1.2035-0.43473-1.3485-1.3196-2.4947-2.5047-3.2748-1.3103-0.86244-1.9319-0.90821-3.4496-1.3429-1.7894-0.24391-2.0131-0.36035-3.773-0.2814-0.82691 0.0371-1.7734 0.12315-2.5088 0.573-0.9598 0.58708-0.97058 1.0063-1.4422 1.9978-0.09862 0.54266-0.2554 1.0779-0.29586 1.628-0.26154 3.5555 1.2616 7.1901 2.6513 10.382 0.18863 0.38609 0.38186 0.76997 0.56589 1.1583 0.09088 0.19175 0.48432 0.77198 0.30995 1.1098-0.06216 0.12042-0.19881 0.18483-0.30658 0.26699-0.92624 0.70608-0.76185 0.54268-1.9812 1.1547-2.2093 0.87585-4.5491 1.456-6.94 1.3436-0.99106-0.0466-1.3993-0.16295-2.312-0.35288-0.18555-0.0707-0.38254-0.11659-0.55665-0.21205-0.23517-0.12894-0.19178-0.14155-0.11063-0.24207l-0.94461 0.32819c0.08017 0.16296 0.12439 0.34923 0.2405 0.48887 0.32732 0.39364 0.70715 0.44937 1.1698 0.61653 0.99771 0.20322 1.4417 0.32831 2.5235 0.37336 2.5459 0.10601 5.036-0.50528 7.3839-1.4524 1.0242-0.52802 2.5016-1.0682 2.8334-2.3503 0.20995-0.81128-0.72488-1.9447-0.95837-2.63-1.3182-3.0231-2.7729-6.4461-2.5826-9.813 0.02655-0.46961 0.14987-0.9287 0.2248-1.3931 0.25451-0.63919 0.30026-1.0732 0.89616-1.4729 0.61837-0.4147 1.4304-0.46783 2.1359-0.50269 1.6349-0.0808 1.8426 0.026 3.5068 0.24405 1.3455 0.37088 1.9161 0.4127 3.08 1.1482 1.0019 0.63324 1.7935 1.5882 2.1675 2.717 0.11682 0.35263 0.15837 0.72588 0.23755 1.0888 0.0407 0.42018 0.0955 0.83923 0.12201 1.2605 0.13351 2.1207 0.0189 4.253 0.19557 6.3724l0.99654-0.0831z" style="paint-order:normal"/>
    <path d="m103.46 112.76c0.0225-0.22371 0.072-0.6155 0.0437-0.82639-0.11732-0.87216-0.65705-1.5314-1.3424-2.0554-0.35146-0.26876-0.74708-0.47422-1.1206-0.71133-1.3034-0.70111-2.7162-1.1313-4.1584-1.4343-0.42767-0.0899-1.4533-0.28619-1.9454-0.21969-0.29232 0.0395-0.56324 0.17555-0.84485 0.26332-0.27327 0.2352-0.57247 0.44327-0.81982 0.7056-0.52323 0.55492-1.1093 1.4944-1.5085 2.119-0.23817 0.37256-1.2737 2.0544-1.5358 2.4308-0.24992 0.35882-0.53028 0.69543-0.79542 1.0432-0.26858 0.28124-0.51339 0.58729-0.80574 0.84373-0.91974 0.80679-2.1625 1.2947-3.3955 1.2389-0.18903-9e-3 -0.37151-0.0722-0.55726-0.10824-0.12404-0.0636-0.26206-0.10537-0.37213-0.19095-0.17304-0.13453-0.34054-0.47942-0.41712-0.65947-0.26294-0.61822-0.3528-1.2408-0.43822-1.9017-0.0032-0.54496-0.04254-1.1749 0.39107-1.5909 0.46502-0.44617 1.1777-0.53032 1.774-0.6569 0 0-0.21476-0.97666-0.21476-0.97666-0.62269 0.14088-1.1635 0.21722-1.7311 0.55005-1.124 0.65905-1.2494 1.6206-1.2105 2.8058 0.15354 1.1334 0.37632 2.6498 1.4276 3.3378 0.18966 0.1241 0.41633 0.17932 0.6245 0.26899 0.26412 0.04 0.52534 0.11254 0.79237 0.11988 1.4871 0.0409 2.9511-0.56955 4.052-1.5478 0.31796-0.28253 0.58449-0.61811 0.87673-0.92717 0.28074-0.37007 0.57679-0.72901 0.84222-1.1102 1.1219-1.6112 1.9518-3.4517 3.3561-4.8513 0.15909-0.0687 0.30603-0.17954 0.47727-0.2062 0.44166-0.0687 1.3843 0.11779 1.7458 0.19282 1.3368 0.27747 2.6486 0.6687 3.8607 1.3096 0.65569 0.40292 1.8517 1.0124 1.9933 1.9064 0.0273 0.17214-0.016 0.51678-0.0337 0.69744l0.98996 0.14142z" style="paint-order:normal"/>
    <path d="m100.45 113.61c-0.092-3e-3 -0.18425-0.0139-0.27612-8e-3 -0.81906 0.0549-1.6731 0.38369-2.4085 0.72829-0.23099 0.10824-0.45439 0.23201-0.68159 0.34801-0.58502 0.37054-0.77384 0.45798-1.3 0.92432-1.0086 0.89389-1.8054 1.9956-2.5947 3.0781-0.7925 1.158-1.4149 2.3043-1.7324 3.6819-0.17279 0.74985-0.17158 1.0624-0.23348 1.8187-0.02706 0.87157 0.10768 1.7282 0.31493 2.5706l0.97058-0.24079c-0.18462-0.73708-0.3047-1.4872-0.28866-2.2504 0.052-0.67391 0.05039-0.95957 0.19903-1.6264 0.28168-1.2637 0.8551-2.3029 1.5782-3.3647 0.73514-1.0099 1.4751-2.0444 2.4094-2.8847 0.45857-0.41239 0.62081-0.4878 1.1331-0.8166 0.20695-0.10648 0.4105-0.21985 0.62086-0.31942 0.42804-0.20261 0.77127-0.33785 1.2206-0.47585 0.24382-0.0749 0.51698-0.14519 0.775-0.17114 0.0563-6e-3 0.11311 9e-5 0.16967 1.3e-4l0.12403-0.99228z" style="paint-order:normal"/>
   </g>
   <g>
    <path d="m85.468 100.26 17.43 25.891 0.57187-0.42953-17.229-26.007z" fill="#694747" stroke-width=".26458px"/>
    <path d="m96.909 91.806 3.9289 30.963 0.70393-0.12657-3.6974-30.977z" fill="#694747" stroke-width=".26458px"/>
    <path d="m87.903 130.55 16.001-22.562 25.349 22.822-11.314 15.987z" fill="#ff2b2b" stroke-width=".17695"/>
    <path d="m103.9 107.99-1.0487-6.552 25.349 22.822 1.0487 6.552-25.349-22.822" fill="#b22c2c" stroke-width=".17695"/>
   </g>
   <path d="m87.972 130.28c18.857 4.0083 24.994-2.7242 15.933-22.288" fill="none" stroke-width=".26155px"/>
   <path d="m102.86 101.44c11.034 6.5078 22.439 13.166 1.0487 6.552" fill="#b22c2c" stroke-width=".26155px"/>
   <g fill="none">
    <path d="m103.9 107.99-1.0487-6.552" stroke-linecap="round" stroke-width=".26155px"/>
    <path d="m87.903 130.55c10.769 12.822 10.567 12.022 4.6598 2.5715" stroke-linecap="round" stroke-linejoin="round" stroke-width=".26196"/>
    <path d="m87.903 130.55 4.6598 2.5715" stroke-width=".098854"/>
   </g>
   <path d="m96.329 139.94c-0.75141-0.60406-2.7416-2.8435-6.8305-7.686-0.62732-0.74293-1.1361-1.3512-1.1305-1.3517 0.0113-1e-3 1.8768 1.0063 3.1731 1.7135l0.86018 0.46929 0.10566 0.17656c0.05811 0.0971 0.35292 0.57395 0.65513 1.0596 1.607 2.5827 2.5087 4.0953 2.958 4.9619 0.12871 0.24825 0.2752 0.56907 0.30649 0.67125l0.026 0.085z" fill="#b22c2c" stroke-linecap="round" stroke-linejoin="round" stroke-width=".0061783"/>
   <g fill="none" stroke-width=".8903">
    <path d="m106.68 135.49 2.0889-3.3302s2.8897 1.6486 3.2553 4.4062c0.36557 2.7576 0.36304 2.9757 0.36304 2.9757"/>
    <path d="m112.04 136.07 4.6029 3.29"/>
    <path d="m112.82 136.3 1.8669 0.066"/>
    <path d="m105.19 133.02 2.5092-0.49649"/>
    <path d="m118.67 136.53-5.8928-4.2591 3.5712-5.5748 5.9611 4.3463"/>
    <path d="m117.19 135.34 3.4546-5.3948"/>
    <path d="m118.92 132.65-4.3546-3.1662"/>
    <path d="m115.14 133.89 3.4146-5.4614"/>
    <path d="m110.16 129.35 2.1531 1.5562 2.5214-3.9547-2.1081-1.5615z"/>
    <path d="m108.75 129.5 3.5712-5.5748"/>
   </g>
  </g>
  <rect x="192.82" y="54.236" width="0" height="22.159" ry="3.0826" fill="#e6e6e6" stroke-width="0"/>
  <g transform="rotate(3.888 245.41 -95.543)" stroke="#000" stroke-width=".282">
   <rect transform="matrix(-.57133 -.82072 .824 -.56658 0 0)" x="-169.39" y="75.139" width="6.7206" height="52.968" ry="3.3716" fill="#964b00"/>
   <rect transform="matrix(-.57133 -.82072 .824 -.56658 0 0)" x="-177.32" y="63.169" width="22.615" height="17.413" fill="#964b00"/>
   <rect transform="matrix(-.57133 -.82072 .824 -.56658 0 0)" x="-154.71" y="64.116" width="4.1406" height="15.521" ry="0" fill="#603408"/>
   <rect transform="matrix(-.57133 -.82072 .824 -.56658 0 0)" x="-187.14" y="59.747" width="5.6709" height="24.258" ry="3.3746" fill="#964b00"/>
   <rect transform="matrix(-.57133 -.82072 .824 -.56658 0 0)" x="-150.57" y="59.747" width="5.6709" height="24.258" ry="3.3746" fill="#964b00"/>
   <rect transform="matrix(-.57133 -.82072 .824 -.56658 0 0)" x="-181.46" y="64.116" width="4.1406" height="15.521" ry="0" fill="#603408"/>
  </g>
  <path d="m235.65 115.09c10.594 8.1828-9.8922 30.723-38.158 35.981-0.50909 0.0947-0.99736 0.17336-1.4643 0.22281-14.589 1.546-46.291-3.4652-39.685-17.789 1.9397-4.2058 4.4639-6.7359 7.387-8.2823 6.424-3.3985 14.774-2.0461 23.081-3.289 16.784-2.5113 36.011-16.754 48.84-6.844z" fill="#b5966f" stroke="#000" stroke-width=".32234"/>
  <path d="m232.01 118.35c9.3916 6.3849-9.0688 24.424-34.338 28.846-0.45509 0.0797-0.89151 0.14645-1.3087 0.18978-13.034 1.3571-41.29-2.3238-35.282-13.729 1.7641-3.3489 4.0368-5.3758 6.6578-6.6272 5.7602-2.7502 13.203-1.7549 20.626-2.8148 15-2.1416 32.271-13.597 43.645-5.8647z" fill="#ffc700" stroke="#000" stroke-width=".32234"/>
  <path d="m-6.7352 12.722" fill="#333"/>
  <path d="m-6.7352 12.722" fill="#4d4d4d"/>
  <g fill="#e2cbb0" stroke="#000">
   <g stroke-width=".14649px">
    <path d="m212.59 121.8s0.60283 0.70184 0.90077 0.67031c0.18045-0.0189 1.0833-0.79216 0.4967-0.0243-0.11151 0.14579-0.22439 0.31729-0.35362 0.43447-0.0441 0.0401-0.65692 0.64559-0.63681 0.69134 0.14714 0.33496 0.42713 0.65271 0.67654 0.85003 0.12197 0.0969 0.37457 0.26234 0.50952 0.32883 0.38134 0.18787 0.84489-1.5897 1.0358-1.8396 0.21545-0.28206-0.1204 0.90829-0.1392 0.97895-0.0143 0.0536 0.2813 0.2933 0.33208 0.33351 0.55063 0.43531 1.1104-0.20009 1.3458-0.93659 0.1721-0.53855 0.11868-1.2229-0.0995-1.7194-0.78381-1.7844-1.7237-1.9505-3.1603-0.81381-0.84154 0.66585-0.90787 1.0462-0.90787 1.0462z"/>
    <path d="m201.17 136.39s0.66149 0.6234 0.95501 0.55519c0.17778-0.0412 1.0074-0.92183 0.49183-0.0854-0.0981 0.15879-0.19515 0.34331-0.31333 0.47584-0.0404 0.0453-0.59634 0.72335-0.57229 0.76636 0.17588 0.31492 0.48239 0.59627 0.74785 0.76166 0.12986 0.0816 0.39568 0.21452 0.53575 0.26391 0.39586 0.13971 0.69997-1.6855 0.86773-1.9577 0.18938-0.30717-0.0396 0.91822-0.052 0.99079-9e-3 0.0552 0.30562 0.25691 0.35971 0.29064 0.58603 0.36479 1.0866-0.33641 1.2557-1.098 0.12359-0.55688 0.011-1.2309-0.25064-1.6976-0.93703-1.6777-1.8864-1.7265-3.2148-0.41832-0.77817 0.76631-0.81056 1.1528-0.81056 1.1528z"/>
    <path d="m220.3 130.46s-0.66835 0.64542-0.68024 0.99818c-8e-3 0.21366 0.52694 1.3432-0.0438 0.58555-0.10827-0.14399-0.23806-0.29189-0.32002-0.45416-0.0281-0.0556-0.45857-0.82932-0.49967-0.80978-0.30085 0.14291-0.60435 0.44341-0.80256 0.71876-0.0975 0.13457-0.26907 0.41653-0.34241 0.5691-0.20731 0.43115 1.2288 1.1344 1.4145 1.381 0.20959 0.27829-0.74884-0.22244-0.80587-0.25092-0.0435-0.0213-0.28308 0.3042-0.32348 0.36027-0.43732 0.6079 0.0252 1.3222 0.61466 1.6645 0.431 0.25026 1.0138 0.24908 1.4597 0.0368 1.6027-0.76127 1.8636-1.8504 1.0923-3.6394-0.45183-1.048-0.76337-1.1599-0.76337-1.1599z"/>
    <path d="m196.79 131.99s0.72255-0.51973 0.76984-0.86946c0.0287-0.21179-0.38281-1.4377 0.10222-0.576 0.092 0.16377 0.20472 0.3354 0.26898 0.51247 0.022 0.0606 0.36741 0.91244 0.40979 0.90056 0.31037-0.0868 0.63922-0.33009 0.86199-0.56794 0.10936-0.11625 0.30668-0.36562 0.3942-0.50421 0.24744-0.39159-1.0943-1.3598-1.2521-1.6402-0.1781-0.3165 0.71413 0.36103 0.76738 0.39988 0.0405 0.0296 0.30917-0.2509 0.35459-0.29934 0.4915-0.52522 0.10849-1.3236-0.43669-1.7745-0.39873-0.32963-0.972-0.43685-1.4322-0.3077-1.6534 0.46185-2.0199 1.4999-1.4417 3.4277 0.33871 1.1293 0.6339 1.2988 0.6339 1.2988z"/>
    <path d="m185.62 139s-0.49193 0.81412-0.41935 1.1577c0.0439 0.2081 0.82918 1.144 0.0973 0.5772-0.13895-0.10784-0.29957-0.21315-0.41741-0.3461-0.0403-0.0455-0.6407-0.66809-0.67574-0.63744-0.25661 0.22414-0.47824 0.60095-0.60413 0.92331-0.0622 0.1578-0.16068 0.47888-0.19516 0.64704-0.0976 0.4752 1.4576 0.7413 1.6957 0.92571 0.26879 0.20819-0.77653 2.6e-4 -0.83838-0.0106-0.0472-8e-3 -0.20104 0.37454-0.22673 0.44022-0.27763 0.71167 0.33949 1.2677 0.99051 1.4286 0.47607 0.11755 1.0388-0.0504 1.4191-0.38338 1.3671-1.194 1.3596-2.319 0.18812-3.8228-0.68625-0.88089-1.0139-0.89938-1.0139-0.89938z"/>
   </g>
   <path d="m180.27 132.13s0.0422-0.99976-0.17573-1.2424c-0.13196-0.14696-1.2199-0.43177-0.34529-0.42339 0.16613 1e-3 0.34934-0.0123 0.50917 0.024 0.0547 0.0123 0.84404 0.15202 0.85954 0.10382 0.11361-0.35279 0.12798-0.81165 0.0866-1.1634-0.0197-0.17252-0.0835-0.50574-0.13121-0.66928-0.13486-0.46223-1.5647 0.30922-1.8493 0.30649-0.3212-2e-3 0.65319-0.4972 0.71043-0.52718 0.0435-0.0231-2e-3 -0.44376-0.011-0.51547-0.0914-0.77641-0.86436-0.84922-1.4856-0.56796-0.45421 0.20574-0.85091 0.70732-1.0189 1.2308-0.60505 1.8794-0.0852 2.8212 1.587 3.3365 0.97953 0.30188 1.2636 0.10772 1.2636 0.10772z" stroke-width=".14631"/>
  </g>
  <g fill="#074a07" stroke="#000" stroke-width=".14631">
   <path d="m170.98 128.28c-0.55666-0.0323-1.4822 0.64423-1.2608 1.3608 0.20168 0.65302 1.2882 1.0627 1.8527 0.88868 0.83671-0.25801 0.53424-1.5605 0.0258-1.9995-0.17324-0.14956-0.41245-0.19459-0.61756-0.24994z"/>
   <path d="m164.47 136.87c-0.55665-0.0323-1.4822 0.64424-1.2609 1.3608 0.20168 0.65302 1.2882 1.0627 1.8527 0.88869 0.83669-0.25802 0.53423-1.5605 0.0257-1.9995-0.17323-0.14957-0.41244-0.19458-0.61755-0.24994z"/>
   <path d="m178.23 142.21c-0.55665-0.0323-1.4822 0.64422-1.2609 1.3608 0.20169 0.65302 1.2883 1.0627 1.8527 0.88867 0.8367-0.258 0.53422-1.5605 0.0257-1.9995-0.17322-0.14957-0.41244-0.1946-0.61754-0.24994z"/>
   <path d="m196.72 123.79c-0.55666-0.0323-1.4822 0.64423-1.2609 1.3608 0.20169 0.65301 1.2882 1.0627 1.8527 0.88868 0.83671-0.25801 0.53424-1.5605 0.0258-1.9995-0.17324-0.14955-0.41246-0.19459-0.61756-0.24994z"/>
   <path d="m195.26 133.57c-0.55665-0.0323-1.4822 0.64423-1.2609 1.3608 0.20169 0.65301 1.2883 1.0627 1.8527 0.88867 0.8367-0.258 0.53422-1.5605 0.0257-1.9995-0.17322-0.14956-0.41244-0.19459-0.61754-0.24994z"/>
   <path d="m212.36 127.83c-0.55664-0.0323-1.4822 0.64422-1.2608 1.3608 0.20168 0.65302 1.2882 1.0627 1.8527 0.88867 0.83669-0.258 0.53422-1.5605 0.0257-1.9995-0.17323-0.14957-0.41244-0.1946-0.61755-0.24994z"/>
   <path d="m208.4 141.03c-0.55666-0.0323-1.4822 0.64423-1.2609 1.3608 0.20169 0.65302 1.2882 1.0627 1.8527 0.88867 0.8367-0.258 0.53423-1.5605 0.0258-1.9995-0.17323-0.14957-0.41245-0.1946-0.61755-0.24995z"/>
   <path d="m227.72 128.81c-0.55666-0.0323-1.4822 0.64422-1.2609 1.3608 0.20169 0.65301 1.2883 1.0627 1.8527 0.88867 0.83671-0.25801 0.53423-1.5605 0.0258-1.9995-0.17323-0.14957-0.41245-0.1946-0.61755-0.24994z"/>
   <path d="m229.65 118.96c-0.55665-0.0323-1.4822 0.64423-1.2608 1.3608 0.20167 0.65301 1.2882 1.0627 1.8527 0.88868 0.83669-0.25802 0.53423-1.5605 0.0257-1.9995-0.17323-0.14957-0.41244-0.19461-0.61755-0.24995z"/>
   <path d="m217.2 117.42c-0.55665-0.0323-1.4822 0.64423-1.2608 1.3608 0.20168 0.65302 1.2882 1.0627 1.8527 0.88868 0.8367-0.258 0.53423-1.5605 0.0258-1.9995-0.17324-0.14956-0.41245-0.19459-0.61756-0.24994z"/>
  </g>
  <g fill="#b40000" stroke="#000">
   <ellipse transform="matrix(.99573 .092319 -.030985 .99952 0 0)" cx="177.97" cy="120.06" rx="5.5703" ry="3.9673" stroke-width=".32265"/>
   <ellipse transform="matrix(.93016 -.36716 .32096 .94709 0 0)" cx="154.8" cy="193.66" rx="4.4921" ry="3.1991" stroke-width=".32254"/>
   <ellipse transform="matrix(.90347 -.42866 .37724 .92611 0 0)" cx="159.11" cy="208.74" rx="4.8022" ry="3.4986" stroke-width=".3226"/>
   <ellipse transform="matrix(.89548 -.4451 .39249 .91976 0 0)" cx="141.66" cy="215.64" rx="4.9267" ry="3.1023" stroke-width=".32262"/>
   <ellipse transform="matrix(.99072 -.13593 .11699 .99313 0 0)" cx="177.47" cy="166" rx="5.1265" ry="3.2711" stroke-width=".32238"/>
   <ellipse transform="matrix(.99719 .074932 -.064379 .99793 0 0)" cx="195.97" cy="116.41" rx="5.4245" ry="3.3" stroke-width=".32235"/>
  </g>
  <g>
   <g transform="rotate(-39.437 104.31 88.218)" fill="#5e2727" stroke-width=".282">
    <path d="m57.905 67.619v2.3377m29.125-2.3377v2.3377m1e-6 2e-6c-2e-6 1.1162-6.5198 2.0211-14.562 2.0211s-14.562-0.90489-14.562-2.0211m29.125-2.3377c-2e-6 1.1162-6.5198 2.0211-14.562 2.0211s-14.562-0.90489-14.562-2.0211 6.5198-2.0211 14.562-2.0211 14.562 0.90489 14.562 2.0211" fill="#5e2727" stroke="#000" stroke-width=".282"/>
   </g>
   <path d="m67.847 97.049c-5.1187 4.0447-9.5394 6.7617-10.732 6.5963-0.17753-0.0246-0.11616 0.0366-0.85312-0.85118-0.36879-0.44429-0.66318-0.80881-0.65708-0.81383 6e-3 -5e-3 0.03715-6e-3 0.06912-1e-3 0.09611 0.0125 0.31132-0.0163 0.52336-0.0701 1.5787-0.40034 5.0547-2.5652 9.0656-5.6461 1.0159-0.78036 1.7996-1.4104 3.1127-2.5023 1.5524-1.2909 2.096-1.7616 3.32-2.8751 2.308-2.0996 4.1806-4.0364 5.2573-5.4375 0.6025-0.78407 0.92169-1.3378 1.0132-1.7577l0.02803-0.12863 0.65777 0.79972c0.53432 0.64963 0.66094 0.81034 0.67478 0.85619 0.06015 0.19978-0.07813 0.5932-0.38291 1.0894-0.95092 1.548-3.4592 4.181-6.8299 7.1695-1.078 0.95577-3.145 2.6868-4.2663 3.5728z" fill="#5e2727" stroke-width="0"/>
   <path d="m56.469 92.309c0.20819-0.0013 0.41206-0.21136 0.4318-0.40215 0.03146-0.30414 0.07767-0.9482 0.24619-1.1004 0.40283-0.36389 1.0244-0.4221 1.4722-0.93224 0.39985-0.45548 0.20741-1.1696 0.71632-1.5492 0.42122-0.3142 0.99034-0.2999 1.4342-0.63097 0.7137-0.53239 0.83008-1.6875 1.6068-2.1723 0.52072-0.32497 1.1805-0.35951 1.743-0.5596 0.78252-0.27836 1.3607-1.3768 1.9712-1.9093 0.29251-0.25514 0.78259-0.16317 1.0725-0.41602 0.43306-0.37774 0.76616-0.934 1.1913-1.3687 0.34515-0.35285 3.8168-2.6129 4.0799-2.6594 1.0056-0.17758 1.2371 0.22701 2.0217 0.24728 0.93164 0.02413 1.2057-0.56654 1.8164 0.51017 0.29636 0.52253 0.10355 0.99124 0.27283 1.5382 0.11588 0.37439-0.07748 0.64041-0.14731 1.0836-0.04745 0.30126-1.3201 1.3475-1.649 1.4495-0.4042 0.1253-1.8639 0.21098-2.1157 0.39881-0.34704 0.25888 0.1388 1.3845 0.05566 1.7276-0.13404 0.55313-0.5222 0.66423-0.9177 1.0685-0.53512 0.54705-1.747 0.85506-2.0743 1.4239-0.24777 0.43068 0.18669 1.0592-0.02017 1.5647-0.27954 0.68314-1.515 0.80467-1.9219 1.4473-0.29268 0.46227 0.0252 1.0483-0.28078 1.4848-0.40804 0.58222-1.34 0.48197-1.9041 0.78948-0.65148 0.35518-0.75564 1.1933-1.3643 1.5251-0.76536 0.41727-1.8024 0.11908-2.6334 0.41469-1.8651 0.66344-1.8965 1.739-4.4633 1.9717-0.59657 0.05409-1.0898-0.11573-1.5597-0.45478-0.49299-0.35572-1.6707 0.73256-2.1663-0.22176-0.43658-0.84072 0.49128-1.4862 0.93627-2.0287 0.67065-0.81759 0.1936-1.1665 1.2269-1.9163 0.25002-0.18143 0.77733-0.30509 0.92272-0.32369z" fill="#2dca00" stroke="#000" stroke-linecap="round" stroke-linejoin="round" stroke-width=".20999"/>
   <path d="m44.485 97.228c15.611-12.785 17.063-18.308 26.276-24.878l5.784-0.65724c-5.2941 2.0832-18.384 18.069-25.857 24.942z" fill="#ffc500" stroke="#000" stroke-linecap="round" stroke-linejoin="round" stroke-width=".282" style="paint-order:normal"/>
  </g>
  <g stroke="#000">
   <g transform="matrix(.88139 -.47239 .59927 1.1181 -24.536 68.533)" fill="#ac6e34" stroke-width=".088784">
    <g transform="translate(-2.0254 -10.198)">
     <path d="m57.905 67.619c-2e-6 -1.1162 6.5198-2.0211 14.562-2.0211s14.562 0.90489 14.562 2.0211"/>
     <path d="m87.03 67.619c-2e-6 1.1162-6.5198 2.0211-14.562 2.0211s-14.562-0.90489-14.562-2.0211"/>
     <path d="m87.03 69.956c-2e-6 1.1162-6.5198 2.0211-14.562 2.0211s-14.562-0.90489-14.562-2.0211"/>
     <path d="m87.03 67.619v2.3377"/>
     <path d="m57.905 67.619v2.3377"/>
    </g>
    <g>
     <path d="m69.209 59.371c-0.65936-0.0069-2.2533-0.04946-2.9466-0.07874-5.3817-0.22729-9.3512-0.86078-10.166-1.6224-0.10532-0.09843-0.12928-0.13572-0.14014-0.21815-0.01799-0.1367 0.06056-0.24998 0.26989-0.38914 1.073-0.71331 4.8304-1.2846 9.9312-1.51 2.5275-0.11168 5.958-0.11174 8.571-1.32e-4 4.6621 0.19912 8.324 0.71672 9.6701 1.3668 0.61339 0.29624 0.69643 0.56373 0.2658 0.85617-0.99776 0.67757-4.5989 1.2512-9.3045 1.482-1.5486 0.07598-4.0101 0.13499-5.1566 0.12362-0.27011-0.0027-0.71737-0.0072-0.99391-0.01011z"/>
     <path d="m68.729 59.364c-2.2247-0.04269-3.9911-0.12806-5.8231-0.28142-3.6531-0.30581-6.2173-0.83792-6.8093-1.413-0.19494-0.18938-0.19497-0.30349-1.51e-4 -0.4923 0.81437-0.78924 5.1229-1.4515 10.715-1.6469 1.1756-0.04108 1.5707-0.04865 3.0285-0.05803 7.0323-0.04521 13.223 0.61094 14.768 1.5652 0.19042 0.11762 0.25419 0.17985 0.29961 0.29241 0.07849 0.19452-0.0787 0.37489-0.51008 0.5853-1.1949 0.58285-4.1607 1.052-8.1968 1.2965-0.73274 0.0444-2.0304 0.09977-2.7362 0.11677-0.30226 0.0073-0.64429 0.01831-0.76005 0.0245-0.39486 0.02114-3.0613 0.02847-3.9756 0.01093z"/>
     <path d="m68.537 61.698c-6.5226-0.12778-11.663-0.83754-12.479-1.7231-0.12147-0.13178-0.11297-0.04551-0.11818-1.1993-0.0026-0.5774 0.0016-1.0459 0.0095-1.0459 0.0078 0 0.03228 0.01924 0.05433 0.04276 0.06629 0.0707 0.25081 0.18514 0.44873 0.27832 1.4736 0.69364 5.5333 1.2297 10.588 1.3982 1.2803 0.04266 2.2858 0.05393 3.9936 0.04475 2.0189-0.01085 2.7378-0.02912 4.3904-0.11154 3.1162-0.15543 5.7928-0.46172 7.5143-0.85988 0.96339-0.22282 1.5616-0.44772 1.899-0.71389l0.10335-0.08154v1.0355c0 0.84115-0.0043 1.0457-0.02273 1.0899-0.08044 0.1925-0.43716 0.40851-0.98773 0.59809-1.7177 0.59148-5.3275 1.0316-9.8292 1.1985-1.4397 0.05337-4.1357 0.07723-5.5645 0.04924z"/>
     <path d="m68.729 59.364c-2.2247-0.04269-3.9911-0.12806-5.8231-0.28142-3.6531-0.30581-6.2173-0.83792-6.8093-1.413-0.19494-0.18938-0.19497-0.30349-1.51e-4 -0.4923 0.81437-0.78924 5.1229-1.4515 10.715-1.6469 1.1756-0.04108 1.5707-0.04865 3.0285-0.05803 7.0323-0.04521 13.223 0.61094 14.768 1.5652 0.19042 0.11762 0.25419 0.17985 0.29961 0.29241 0.07849 0.19452-0.0787 0.37489-0.51008 0.5853-1.1949 0.58285-4.1607 1.052-8.1968 1.2965-0.73274 0.0444-2.0304 0.09977-2.7362 0.11677-0.30226 0.0073-0.64429 0.01831-0.76005 0.0245-0.39486 0.02114-3.0613 0.02847-3.9756 0.01093z"/>
    </g>
   </g>
   <path d="m83.285 93.119c0.53842 0.32336-0.05088 1.7684-2.9322 3.0349-2.0199 0.88783-4.3603 3.5752-7.0637 5.0242-1.6414 0.87971-3.8844 1.568-5.837 2.312-4.442 1.6926-7.2529 2.9148-7.633 2.2056-0.19624-0.36614 2.2042-2.1737 3.574-2.8826 1.3826-0.71549 2.131-1.5694 2.7484-2.0276 1.6877-1.2525 1.5732-1.5354 4.4888-3.098 1.6885-0.90497 4.9665-2.4342 6.7615-2.91 2.8939-0.76715 4.7074-2.3706 5.8932-1.6584z" fill="#b01717" stroke-width=".282"/>
   <path d="m49.545 74.088c-4.9774 6.2484-6.3183 13.46-2.9957 16.109l-0.02361 0.02964c1.0489 0.83555 5.9419-3.5629 10.929-9.8236 4.9872-6.2607 8.1803-12.013 7.1314-12.849l-0.0098 0.01229c-3.3247-2.6464-10.054 0.2731-15.031 6.5215z" fill="#ac6e34" stroke-width=".282"/>
  </g>
  <g stroke="#000">
   <g>
    <path d="m236.49 82.39 1.0323-2.6179m-3.9242 9.7367-1.0597 2.5945m3.9515-9.7132s4.2001-4.1532 6.2563-2.7303c0.8363 0.57872-0.024 4.1896-1.8363 7.5204-1.4096 2.5908-3.5164 4.9632-5.0678 5.9228-1.0256 0.63438-1.9527-0.0594-2.2441-3.5942m-1.0597 2.5945c0.14264 4.8891 3.258 3.379 4.5876 2.4333 4.597-3.2695 9.1086-14.43 6.7619-16.488-2.3467-2.0578-6.3657 1.7233-6.3657 1.7233" fill="#f4f4f4" stroke-width=".26458px"/>
    <g transform="matrix(.84847 .34278 -.37459 .92719 151.51 -11.078)" fill="#eee">
     <path transform="scale(.26458)" d="m419.75 141.25c-27.752 0-50.25 6.5478-50.25 14.625s22.498 14.625 50.25 14.625 50.25-6.5478 50.25-14.625-22.498-14.625-50.25-14.625z" stroke-width="1.1142"/>
     <g stroke-width=".29479">
      <path d="m124.35 72.992c0 2.1371-5.9525 3.8695-13.295 3.8695-7.3428 0-13.295-1.7324-13.295-3.8695"/>
      <path d="m97.764 72.992v-31.75"/>
      <path d="m124.35 41.242v31.75"/>
     </g>
     <path transform="scale(.26458)" d="m413.75 290.24c-22.595-0.89599-40.129-5.8406-43.513-12.271l-0.50401-0.95749-0.0452-59.64-0.0452-59.64 0.71085 1.0645c5.0889 7.6207 30.452 12.877 56.478 11.705 21.827-0.98286 38.531-5.6772 42.506-11.946l0.5389-0.84976-2e-3 59.476-2e-3 59.476-0.43235 0.92866c-0.62274 1.3376-1.4069 2.2371-2.9933 3.4333-6.5667 4.9516-21.772 8.4355-39.97 9.1582-4.0265 0.1599-9.5742 0.18682-12.728 0.0618z" stroke-width="1.1142"/>
    </g>
    <path d="m218.95 63.588c-4.0373 11.698-7.6119 19.362-10.782 26.723 0 0-1.1975 2.3618 10.451 7.276 4.2333 1.7859 9.7234 1.2568 9.7234 1.2568 3.5285-9.2308 7.455-18.329 11.509-27.384-1.5455 0.91883-5.9665 1.2562-11.284-1.0166-4.1497-1.7736-8.7918-4.2939-9.618-6.8548z" fill="#ffcd22" stroke-width=".26458px"/>
   </g>
   <g fill="none" stroke-width=".26458px">
    <path d="m210.75 90.443c6.135 0.57609 10.727 2.7057 15.544 6.4162"/>
    <path d="m217.2 77.743c-1.986-0.1426 0.29843 3.0373 0.66146 0.49609 0.0653-0.45689-0.31367-0.40915-0.66146-0.49609z"/>
    <path d="m217.73 81.877c-0.42929 0.09799-0.29964 1.2583 0.23151 0.8599 0.40052-0.30039 0.40246-1.1769-0.23151-0.8599z"/>
    <path d="m215.22 86.905c-0.31117-0.23236-0.62734-0.33319-1.0253-0.26458-0.45461 0.07838-0.56943 0.20635-0.7276 0.56224-0.61811 1.3907 2.4774 1.1513 1.7529-0.29766z"/>
    <path d="m224.35 86.408c-2.0364 0.0044-0.56399 2.9586 0.26458 1.0253 0.21698-0.50628 0.076-0.68472-0.26458-1.0253z"/>
    <path d="m219.62 85.846c-0.83443 1.8035 3.0298 0.37872 0 0z"/>
    <path d="m222.46 81.117c-0.0281 0.38548 0.088 0.42829 0.46302 0.56224 1.0296 0.3677 0.92675-2.23-0.46302-0.56224z"/>
    <path d="m221.67 71.724c-0.0289 0.11578-0.16536 0.62487-0.16536 0.76068 0 1.0222 0.98676-5.29e-4 1.0583-0.42995 0.11589-0.69536-0.78736-1.0508-0.99219-0.23151"/>
    <path d="m220.61 75.395c0.0259 0.19866-0.0909 0.51357 0.0992 0.66146 0.1269 0.0987 0.44324 0.15764 0.59531 0.13229 1.3484-0.22474-0.87042-2.2009-0.69453-0.79375z"/>
    <path d="m233.18 75.23c-0.42721-0.05696-0.57112-0.13068-0.99219 0.03307-1.9621 0.76305 3.2639 1.1028 0.99219-0.03307z"/>
    <path d="m227.39 74.006c-0.1375 0.2075-0.29766 0.46588-0.29766 0.7276 0 1.4694 2.0902-1.4958 0.29766-0.7276z"/>
    <path d="m230.27 83.829c-0.27488 0.06183-0.67892 0.16908-0.76068 0.49609-0.0416 0.16657 0.1852 0.13725 0.29766 0.16536 1.0099 0.25247 1.0017-1.2002 0.46302-0.66146z"/>
    <path d="m227.22 90.873c-0.2265 0.19361-0.40799 0.48636-0.13229 0.7276 0.85598 0.74898 1.5804-0.93448 0.13229-0.7276z"/>
    <path d="m228.21 78.835c-0.32038-0.1747-0.74017-0.0052-1.0253 0.19844-0.10891 0.07779-0.12716 0.29023-0.0992 0.42995 0.28062 1.4031 2.9543-0.39966 1.1245-0.62839z"/>
    <path d="m220.91 92.378c0.32533 1.4622 1.2637-1.0531 0 0z"/>
    <path d="m216.42 92.825c-0.21539 0.0551-0.51708 0.38022-0.19844 0.49609 1.3439 0.48871 0.79156-0.58082 0.19844-0.49609z"/>
   </g>
  </g>
  <g fill="#f4f4f4" stroke="#000">
   <path d="m241.64 69.656c-0.89867 2.2244-6.7767 2.1062-13.047-0.42715-3.044-1.2298-5.6365-2.7714-7.3958-4.2868-1.8649-1.6064-2.7936-3.1833-2.3312-4.3279 0.34563-0.85551 1.3151-0.91539 2.5319-1.7633 0.91738-0.63927 2.5956-0.60447 4.5356-0.92602 1.6637-0.27576 5.4613 1.8347 7.772 1.8427 1.8521 0.0064 4.3027 3.2171 4.7333 3.2696 3.2896 0.40048 4.0717 0.08228 6.4441-0.728 2.0362-0.69546 2.7903-1.6841 5.3741-1.3868 1.3091 0.15066-0.4458 3.076-3.0584 4.8453-2.5414 1.7211-5.3947 3.4839-5.5581 3.8884z" stroke-linejoin="round" stroke-width=".282"/>
   <g stroke-width=".26458px">
    <path d="m253.55 53.666c-1.3623 7.8847 6.727-3.1392 0 0z"/>
    <path d="m265.19 51.748c-0.95813-1.5192-2.1479 0.07135-3.3073 0.26458-1.9626 0.3271-3.3466 2.4577-0.46302 2.7781 1.722 0.19133 7.791-1.9705 3.7703-3.0427z"/>
    <path d="m267.57 45.663c-0.35621-0.05396-1.4568-0.39529-1.6536-0.19844-3.5464 3.5464 3.5732 1.9386 4.0349 1.3229 1.7882-2.3843-1.3247-1.4264-2.3812-1.1245z"/>
    <path d="m244.75 57.966c-0.61735-0.2132-1.2746-0.19844-1.9182-0.19844-0.70225 0-1.5998 1.0553-0.52917 1.3229 0.69333 0.17333 4.0746-0.51429 2.4474-1.1245z"/>
   </g>
  </g>
  <g stroke="#000" stroke-width=".282">
   <path d="m102.47 53.445 1.3017 22.799 15.023-16.93c-6.508-0.73604-11.186-2.5346-16.325-5.8682z" fill="#d19a5e"/>
   <g stroke-linejoin="round">
    <path d="m117.79 59.053c6e-3 -0.0041 0.0578-0.05368 0.0792-0.07483 0.0796-0.0763 0.17427-0.17131 0.24399-0.24471 8e-3 -0.0092 0.0164-0.01602 0.0164-0.01621 9.7e-4 2.62e-4 0.0786 0.06313 0.15371 0.12471 0.15039 0.1233 0.38782 0.32223 0.38582 0.32314-2e-3 7.04e-4 -0.32372-0.0378-0.49177-0.05908-0.0909-0.01154-0.23702-0.03039-0.28888-0.03734-8e-3 -0.0012-0.0339-0.0044-0.0562-0.0074s-0.0415-0.0056-0.0428-0.0059c-2e-3 -5.34e-4 -2e-3 -6.26e-4 -2.8e-4 -0.0028z" fill="#ccc"/>
    <path d="m103.09 53.688c-0.1505-0.09537-0.30305-0.19272-0.33899-0.21632l-0.0654-0.04291 0.31993-0.01578c0.17595-0.0087 0.32312-0.01496 0.32704-0.01384 4e-3 0.0015 8e-3 0.02079 0.011 0.04367 3e-3 0.04079 0.0377 0.39258 0.0405 0.4145 1e-3 0.0063-2e-3 0.0099-8e-3 0.0078-6e-3 -0.0022-0.13383-0.08155-0.28435-0.17693z" fill="#ccc"/>
    <path d="m119.65 55.963c-0.067 1.477-0.1336 2.7238-0.47646 3.349-0.72384 1.3195-1.8058 1.1064-2.9068 0.55921-0.90892-0.45173-0.61239-0.71126-1.8564-0.93092-3.1999 0.69077-3.2715-1.1872-4.8787-1.6548-1.8416-0.53578-2.0126 0.82038-3.7547-1.3123-0.35674-0.43675-1.524-0.21342-2.1637-0.60701-0.69798-0.4294-1.3165-1.3783-1.3418-1.9644-0.0394-0.91362 1.2897-2.0286 1.6056-2.9352 1.4216-4.0797 6.105-6.1565 10.461-4.6387 4.3556 1.5178 6.7341 6.0554 5.3125 10.135z" fill="#ffa0a0"/>
   </g>
  </g>
 </g>
 <g transform="translate(6.7352)" stroke="#000">
  <g fill="#ffa0a0" stroke-width=".26458px">
   <path d="m126.17 100.74c-1.2393-0.44832-1.0083 0.60759-1.2689 1.3886-1.1164 3.3465 6.4174 0.0812 1.2689-1.3886z"/>
   <path d="m105.24 94.548c-3.2116 0.90804 1.2548 2.214 1.5195 1.6527 0.65236-1.3829-0.4055-1.8951-1.5195-1.6527z"/>
   <path d="m116.27 91.71c-3.5536-2.0817-1.9332 3.1024-2.0521 4.2941-0.0721 0.72234-0.80436 1.9975-0.51695 2.7244 0.79286 2.0053 3.2474 1.2793 4.7152 1.7433 2.663 0.84191 3.2255 4.8276 5.7648-0.83015 0.35419-0.78917 1.1938-1.2706 1.0652-2.2414-0.3755-2.8341-3.3636-0.98389-4.9972-1.9395-1.0199-0.59664-1.2054-2.1754-2.1148-2.9055-1.1668-0.93682-1.0693 0.32747-1.8642-0.84524z"/>
  </g>
  <g fill="#ffd8d8" stroke-width=".26458px">
   <path d="m126.25 101.24c-1.6243 6e-3 -1.1188 2.842 0 0z"/>
   <path d="m117.57 93.164c-0.51844 0.05613-0.8235-0.0773-1.2375-0.36225-0.157-0.10805-0.89707-0.66413-1.0809-0.49809-0.0856 0.07734-0.90866 6.4507-0.094 6.0827 1.1438-0.51661 0.81039-2.6154 1.3629-3.547 0.15435-0.26025 3.1549-1.0958 1.0496-1.6754z"/>
   <path d="m112.37 46.283c-1.162-0.55852-2.3975-0.3352-3.5246 0.16603-0.991 0.4407-6.1249 5.4696-3.8693 4.9582 1.6847-0.38195 2.8127-2.4783 4.6995-3.0338 0.95152-0.28014 3.9465 0.25588 4.4959-0.33961 0.97995-1.0622-1.1024-1.8089-1.8015-1.7509z"/>
  </g>
  <g stroke-width=".26458px">
   <path d="m117.66 51.483c0.88764 4.056 0.53012-2.3714 0 0z" fill="#eb74ff"/>
   <path d="m116.66 48.298c-1.9728 1.047 0 2.1102 0 0z" fill="#74e7ff"/>
   <path d="m114.09 49.702c-1.4702 2.8832 1.5301 0.65209 0 0z" fill="#eb74ff"/>
   <path d="m112.09 49.181c-3.3601 0.10858-1.8308 2.0848 0 0z" fill="#74e7ff"/>
  </g>
  <g stroke-width=".26458px">
   <path d="m112.24 51.671c-1.5212 1.9458-1.0853 1.8126 0 0z" fill="none"/>
   <path d="m114.17 52.547c-0.2021 3.5194 0.73281 0.49692 0.18798-0.48299" fill="#eb74ff"/>
   <path d="m116.69 53.633c-0.64009 3.7239 1.9481 0.52421 0.0627-0.28678" fill="#74e7ff"/>
  </g>
  <g fill="#eb74ff" stroke-width=".26458px">
   <path d="m114.53 46.939c-2.8326-2.1426-0.38403 2.6826 0 0z"/>
   <path d="m110.88 46.381c-2.8376 1.0394 0.17184 1.3697 0.3603-0.10565"/>
   <path d="m107.76 48.373c-2.8108 1.7596 1.0678 1.8176 0 0z"/>
   <path d="m107.51 51.392c-3.4682 1.7857 2.1672 0.37288 0 0z"/>
  </g>
  <g fill="none" stroke-width=".26458px">
   <path d="m103.88 56.967c0.40278 4.3787 0.21199 9.0067 0.45428 13.267"/>
   <path d="m105.63 57.797c0.68989 3.1382-0.42746 8.1084 0.29763 10.709"/>
   <path d="m107.96 58.431c-0.0474 2.5455-0.0627 5.0914-0.0627 7.6374"/>
   <path d="m103.5 59.442c1.7587 0.20316 4.2604 0.10599 5.7491 0.07547"/>
   <path d="m103.55 61.503c2.12-0.05425 4.2956-0.16121 6.3914-0.09811"/>
   <path d="m104.05 63.623c0.74178 0.1129 2.1339 0.04872 2.5534 0.02265"/>
   <path d="m104.03 65.827c0.51587 0.01442 1.023-0.06453 1.5352-0.10565"/>
  </g>
  <g fill="#ffbb7c" stroke-width=".26458px">
   <path d="m45.828 84.49c-0.17046 0.27921-0.11716 0.53523-0.10182 0.86788 0.06072 1.3163 1.0476-0.64006 0.10182-0.86788z"/>
   <path d="m46.862 81.717c-0.29222 1.7372 1.732 1.6206 0.07049-0.13584"/>
   <path d="m48.538 84.483c0.37653 1.387 1.2237 0.27741 0.047-0.38866"/>
   <path d="m48.852 80.128c0.95011 1.905 1.8512-0.01394 0.18015-0.1132"/>
   <path d="m49.995 76.959c-0.3147 0.01222-0.6757-0.04354-0.91641 0.24527-0.36138 0.43361 1.3089 0.65146 1.3237 0.26036 0.02143-0.56753-0.92962-0.32964-1.1201-0.26036"/>
   <path d="m52.055 79.706c-0.08094-0.03522-0.17897-0.16662-0.24281-0.10566-1.6266 1.5532 2.6021 0.75713 0.01566-0.0566"/>
   <path d="m54.139 76.559c-0.29364-0.05726-0.51765-0.14253-0.82242 0.02641-0.49867 0.27644 1.0076 0.63772 1.261 0.58487 0.61609-0.12847-0.48056-0.60772-0.70493-0.58865"/>
   <path d="m52.126 74.385c-2.4999 1.1687 1.529 0.19244-0.07049 0.19244"/>
   <path d="m56.026 73.596c-0.40161 0.04043-0.61141-0.0208-0.90074 0.30187-1.5794 1.7613 4.0541-0.61349 0.90074-0.30187z"/>
   <path d="m54.233 71.695c-2.1041 0.96017 1.6566 0.32616-0.06266 0.22263"/>
   <path d="m58.572 71.049c-2.5131 0.64136 1.9299 0.80288-0.21931 0.12452"/>
   <path d="m57.311 76.057c-0.09728-0.19648 0.16086-0.29423-0.20364-0.4113-0.36658-0.11773-0.55627 0.30204-0.25064 0.50186 0.58512 0.38256 0.37005-0.37077 0.14099-0.57733"/>
   <path d="m57.757 69.065c-0.46448-0.01066-0.44643-0.06705-0.93991 0.34338-0.70018 0.58235 0.38708 0.4949 0.61877 0.41508 1.4154-0.48767 0.4543-0.79666-0.37596-0.55846"/>
   <path d="m61.055 68.563c-0.28458 0.10314-0.62772 0.10808-0.85375 0.30942-0.92067 0.82013 2.0225 0.11935 0.6031-0.10188"/>
  </g>
  <g fill="#5dff2e" stroke-width=".26458px">
   <path d="m60.532 92.284c-0.22682 0.27289-0.23309 0.63107-0.36 0.95254-0.19354 0.49024-0.54093 1.8891-0.11631 1.5769 0.02739-0.02013 1.9107-3.7514 0.38215-2.6308"/>
   <path d="m63.241 90.195c0.20977 0.56078 0.31725 1.1511 0.48738 1.7237 0.04787 0.16107 1.4815 3.3607 1.2905 1.1633-0.0556-0.63953-1.1045-3.3571-1.8942-3.2419"/>
   <path d="m57.253 91.9c2.8263 0.93228 1.102-1.3615 0.12739-0.26148"/>
   <path d="m55.254 96.038c0.34811-0.46529 0.74086-0.89629 1.1132-1.3448 0.5636-0.67879 0.21758-0.20776 0.54277-0.6457 1.1262-1.5167 0.82152-0.15686 0.34338 0.6297-0.17471 0.2874-2.0876 2.0942-1.9994 1.3608z"/>
   <path d="m66.253 88.61c-0.09567 0.50885 0.19043 1.0132 0.432 1.4435 1.2436 2.215 0.80888-0.98109-0.79754-1.4622"/>
   <path d="m61.706 87.345c1.7039 2.0252 0.82367-1.2308 0.09969-0.11473"/>
   <path d="m65.113 84.89c-0.31229 0.47284-0.24638 0.26596-0.23815 1.0806 0.01045 1.0334 0.84331-0.57604 0.23815-1.0806z"/>
   <path d="m69.194 86.723c-0.37969-0.35192-0.77145-0.43824-1.2849-0.50696-3.2996-0.44156-0.12841 1.216 1.0302 1.3634 1.0624 0.13519 0.22223-0.77626-0.24923-0.99257"/>
   <path d="m72.066 83.394c-0.51964-0.01418-1.0365-0.05336-1.5563-0.05336-0.27659 0-0.5611-0.01725-0.8363 0.01333-3.6801 0.40913 3.4232 1.4933 2.2874 0.1254"/>
   <path d="m74.469 79.408c-1.0625 0.21868-2.152 0.53307-3.1569 0.96055-0.08142 0.03463-1.0908 0.76532-0.936 0.84315 0.74411 0.37407 5.5023-1.872 4.3864-1.9104"/>
  </g>
  <path d="m66.697 101.51c-0.4717 0.53197-0.90592 1.0605-1.5508 1.3981-9.7848 5.1238 6.9118-1.9074 7.0227-2.1879 0.45392-1.1481-5.1454 0.4052-5.472 0.78979z" fill="#ff7c7c" stroke-width=".26458px"/>
  <path d="m73.853 98.717c0.90571-0.36584-0.89705 0.59984-0.33231 1.11 1.0446 0.94358 2.7123-2.5226 0.55384-1.1473" fill="#ff7c7c" stroke-width=".26458px"/>
  <g fill="none">
   <g stroke-width=".26458px">
    <path d="m169.87 136.12c-0.0736 0.43229 0.49966 0.32404 0 0z"/>
    <path d="m171.34 136.25c0.29244 0.19999 0.20378 0.12975-0.0738 0.28436"/>
    <path d="m170.34 138.1c0.25948-0.0461 0.52631-0.0284 0.78947-0.0427"/>
    <path d="m171.9 137.8c-0.43714 1.0966 8e-3 0.0653 0.0369 0.30569"/>
    <path d="m173.63 138.44c-0.0242 0.61255 0.43083 0.30081 0.50909 0.35545"/>
    <path d="m174.53 137.06c-2e-3 0.11138-5e-3 0.22275-7e-3 0.33413 0.0369 0.0284 0.0738 0.0569 0.11067 0.0853"/>
    <path d="m173.22 137.02-0.273 0.2346v0.0142"/>
    <path d="m176.08 137.43c0.20352 0.16665 0.45494 0.19667 0.68617 0.25237"/>
    <path d="m175.68 138.76c0.0861 0.31336 0.0111 0.17909 0.21397 0.40877"/>
    <path d="m175.59 135.4c0.14511-0.0865 0.29021-0.17299 0.43532-0.25948 0.0246-2e-3 0.0492-5e-3 0.0738-7e-3"/>
    <path d="m176.42 136.33c0.3017-0.16879 0.14393-0.10692 0.47221-0.18839"/>
    <path d="m174.6 135.48c-7e-3 -0.0521-0.0148-0.10426-0.0222-0.1564-0.0197-0.12204-0.0394-0.24407-0.059-0.36611"/>
    <path d="m173.57 135.83c0.13956 1.0757-0.0826-0.20403 0.11805 0.29147"/>
    <path d="m172.19 134.67c0.0467 0.81021-0.0588-0.18087 0.1328 0.40877"/>
    <path d="m170.69 134.38c0.0689 0.0663 0.13773 0.1327 0.20659 0.19905 2e-3 6e-3 5e-3 0.0118 7e-3 0.0178"/>
    <path d="m170.23 135.02c1.0714 0.38342-0.24884-0.0697 0.4058 0.11375"/>
    <path d="m173.46 132.93c-0.0566 0.15758-0.11313 0.31516-0.1697 0.47275-5e-3 0.0213-0.01 0.0427-0.0148 0.064"/>
    <path d="m174.67 133.56c-0.32592 0.32712-0.21507 0.15178-0.36891 0.50119"/>
    <path d="m173.31 134.49c0.0664 0.0723 0.13281 0.14455 0.19921 0.21682 0.01 4e-3 0.0197 7e-3 0.0295 0.0107"/>
    <path d="m183.63 131.11c-0.54605 0.0947-0.20468 0.27261 0 0z"/>
    <path d="m186.52 131.6c0.10289 1.1566-0.0356-0.25204 0.0516 0.36612"/>
    <path d="m189.13 131.91c-0.0699-0.0732-0.16232-0.12085-0.24348-0.18128"/>
    <path d="m190.2 129.91c-0.31933-0.0897-0.50109 0.073-0.76733 0.22394"/>
    <path d="m187.78 129.86c-0.52851 0.10071 7e-3 0.29064-0.25086 0.0178"/>
    <path d="m186.88 128.78c-0.0246 0.11007-0.01 0.22318-0.0148 0.33412"/>
    <path d="m185.4 129.81c0.0959 0.0865 0.19184 0.17299 0.28775 0.25948"/>
    <path d="m185.01 131.35c0.10304 0.0442 0.0689 0.14454 0.10329 0.21682"/>
    <path d="m185.13 132.12c0.64598 0.9682-0.17512-0.13805 0.24348 0.19194"/>
    <path d="m188.03 131.73c0.0467 0.0616 0.0935 0.12323 0.14019 0.18484"/>
    <path d="m188.12 132.73c-0.0566 0.0829-0.11313 0.16587-0.1697 0.24881"/>
    <path d="m188.47 133.18c0.10576 4e-3 0.21151 7e-3 0.31726 0.0107"/>
    <path d="m191.41 131.13c-7e-3 -0.0663-0.0148-0.13271-0.0221-0.19906"/>
    <path d="m189.47 128.89c-0.0804 0.14678-0.0247 0.21877 0.0148 0.3519"/>
    <path d="m190.57 131.07c-0.0402 0.35567 0.0662 0.63756 0.14756 0.98816"/>
    <path d="m189.45 131.05c-0.23118-0.0391-0.46237-0.0782-0.69355-0.1173-0.0467 0.0118-0.0935 0.0237-0.14018 0.0355"/>
    <path d="m185.5 129.23c-0.1033-0.0225-0.20659-0.045-0.30989-0.0675-0.0246 7e-3 -0.0492 0.0142-0.0738 0.0213"/>
    <path d="m193.25 140.77c-0.16478 0.1019-0.32956 0.2038-0.49434 0.30569-0.0148 9e-3 -0.0295 0.0189-0.0443 0.0284"/>
    <path d="m192.1 142.03c0.13527 0.0474 0.27054 0.0948 0.4058 0.14218"/>
    <path d="m193.47 142.63c0.27219 0.30052 0.10687 0.14256 0.51647 0.45143"/>
    <path d="m194.9 142.37c0.40078 0.0145 0.19894 0.0316 0.60501-0.0569"/>
    <path d="m194.85 140.96c-0.10821-0.0758-0.21643-0.15166-0.32464-0.22749-0.0123-9e-3 -0.0246-0.019-0.0369-0.0284"/>
    <path d="m193.84 141.48c-0.0443 0.0782-0.0885 0.1564-0.13281 0.2346"/>
    <path d="m194.88 141.66c0.45137-0.0428 0.90493-0.0531 1.3576-0.0746"/>
    <path d="m196.95 141.85c0.0984 0.10426 0.19675 0.20853 0.29512 0.31279"/>
    <path d="m198.6 140.87c0.26828-0.0208 0.50961-0.17798 0.71569-0.25948"/>
    <path d="m198.72 139.84c-0.0541-0.096-0.10821-0.19194-0.16232-0.28791"/>
    <path d="m197.66 139.12c-0.14056-0.71104 0.0262 0.1753-0.059-0.39455"/>
    <path d="m197.18 138.54c-0.73012-0.0463-0.37347-0.0382-1.0698-0.0284"/>
    <path d="m195.02 138.91c-0.0738 0.0201-0.14757 0.0403-0.22135 0.0604l-0.0738 0.0498"/>
    <path d="m193.87 139.21c-0.12543-1e-3 -0.25086-2e-3 -0.37629-4e-3"/>
    <path d="m192.31 139.5c-0.49415 0.17004-0.42573-3e-3 -0.39104 0.39811"/>
    <path d="m192.21 140.81 0.33201 0.0924"/>
    <path d="m194.49 139.66c0.11559 0.0403 0.23118 0.0806 0.34677 0.12085h0.13281"/>
    <path d="m196.2 139.63c0.032 0.0652 0.0639 0.13033 0.0959 0.1955"/>
    <path d="m195.76 139.13c0.1328-0.0746 0.26561-0.14929 0.39842-0.22393"/>
    <path d="m196.89 139.61c0.10821 0.0723 0.21643 0.14455 0.32464 0.21683"/>
    <path d="m197.31 140.71v0.39099c-0.032 0.0201-0.0639 0.0403-0.0959 0.0604"/>
    <path d="m195.89 141.03c0.0812-0.0296 0.16232-0.0592 0.24348-0.0889"/>
    <path d="m203.45 128.4c0.0738 0.16706 0.14757 0.33412 0.22135 0.50118"/>
    <path d="m204.91 128.4c0.0713 0.0403 0.14264 0.0806 0.21396 0.12085 0.01-2e-3 0.0197-5e-3 0.0295-7e-3"/>
    <path d="m205.73 127.56c-0.0393-0.10071-0.0787-0.20142-0.11804-0.30214"/>
    <path d="m203.86 127.09h-0.22872"/>
    <path d="m203.12 126.95c0.0934-0.13744 0.18691-0.27488 0.28037-0.41232"/>
    <path d="m204.11 125.87c-0.0543-0.44179 0.26354-0.5026 0.60501-0.62915"/>
    <path d="m205.25 125.21c0.032 0.0521 0.064 0.10426 0.0959 0.15639"/>
    <path d="m205.22 126.47c-0.41198 0.21384-0.0617 0.1721-0.10329 0.28792"/>
    <path d="m205.05 126c-0.10083-0.0486-0.20167-0.0972-0.30251-0.14574h-0.0369"/>
    <path d="m206.42 126.24c0.12543 0.0545 0.25085 0.109 0.37628 0.16351 0.032 4e-3 0.064 7e-3 0.0959 0.0107"/>
    <path d="m206.8 127.49c-0.0443 0.109-0.0885 0.218-0.1328 0.32701"/>
    <path d="m205.58 128.56c0.19183 0.0853 0.38367 0.17062 0.5755 0.25592"/>
    <path d="m207.7 128.38c0.0664-0.0592 0.13281-0.11848 0.19921-0.17772"/>
    <path d="m207.96 127.15c0.13049-0.3233 0.0597-0.17492 0.20659-0.44787"/>
    <path d="m208.86 125.45c0.0516-0.077 0.10329-0.15403 0.15494-0.23105"/>
    <path d="m209.47 126.24c-0.0418 0.0628-0.0836 0.12559-0.12543 0.18839"/>
    <path d="m209.95 126.23c0.4777-1.1298-0.0883 0.2309 0.1033-0.27015"/>
    <path d="m207.72 124.32c-0.12543 0.0237-0.25086 0.0474-0.37629 0.0711-0.01 5e-3 -0.0197 9e-3 -0.0295 0.0142"/>
    <path d="m206.33 124.01c-0.0172 0.0711-0.0344 0.14218-0.0516 0.21327"/>
    <path d="m207 125.72c0.091 0.0261 0.182 0.0521 0.273 0.0782"/>
    <path d="m206.13 125.47c0.06-0.0554 0.12789-0.0166 0.19183-0.0249"/>
    <path d="m210.06 133.98c-0.0418 0.0794-0.0836 0.15877-0.12543 0.23815"/>
    <path d="m208.31 135.97c0.0351 0.43088-0.014 0.24938 0.1033 0.5545"/>
    <path d="m208.46 137.21c0.15249 0.0533 0.30497 0.10663 0.45745 0.15995"/>
    <path d="m208.92 135.1c9e-3 -0.11752-0.0643-0.21459-0.0959-0.31991"/>
    <path d="m208.91 134.63c0.18937 0.0438 0.37874 0.0877 0.56812 0.13152 0.0467 0.0107 0.0935 0.0213 0.14018 0.032"/>
    <path d="m209.98 135.86c-0.34905 1.1211 0.0728-0.26195-0.12543 0.45142"/>
    <path d="m209.76 136.94c0.0517 0.0296 0.10329 0.0592 0.15494 0.0889"/>
    <path d="m208.99 136.4c0.6157-0.20494-0.46323 0.19478 0.4058-0.13507"/>
    <path d="m210.68 137.8c0.0443-8e-3 0.0885-0.0166 0.13281-0.0249"/>
    <path d="m211.39 136.95c0.2378-0.82742-0.0843 0.18276 0.16232-0.3519"/>
    <path d="m211.1 135.73c-0.0812-0.0474-0.16232-0.0948-0.24348-0.14218v-0.0817"/>
    <path d="m210.46 135.31c-0.0295-0.0948-0.059-0.18958-0.0885-0.28436"/>
    <path d="m210.26 134.62c-1.0786-0.0371 0.0907-5e-3 -0.11806 7e-3"/>
    <path d="m210.75 136.26c-0.0222 0.0521-0.0443 0.10427-0.0664 0.1564"/>
    <path d="m211.38 136.19c0.1697-0.0687 0.3394-0.13744 0.5091-0.20616 0.0467-4e-3 0.0935-7e-3 0.14018-0.0107"/>
    <path d="m212.4 136.02c0.0639 0.077 0.12789 0.15402 0.19183 0.23104 0.0271-6e-3 0.0541-0.0119 0.0812-0.0178"/>
    <path d="m213.93 135.63c0.0541-2e-3 0.10821-5e-3 0.16232-7e-3"/>
    <path d="m213.96 136.34c-0.0812 0.09-0.16232 0.18009-0.24348 0.27014"/>
    <path d="m213.58 136.35c0.0393-0.0865 0.0787-0.17299 0.11805-0.25948"/>
    <path d="m212.93 134.76c-0.22872-0.0107-0.45744-0.0213-0.68617-0.032-0.01-0.0107-0.0197-0.0213-0.0295-0.032"/>
    <path d="m211.73 134.84c-0.0689-0.0225-0.13773-0.045-0.20659-0.0675l0.0369-0.0462"/>
    <path d="m211.49 134.04c-0.21871-0.35623-0.1928-0.16121-0.0148-0.59005"/>
    <path d="m211.98 132.74c0.10575 0.0107 0.2115 0.0213 0.31726 0.032"/>
    <path d="m213.39 133.07c0.11559-0.045 0.23118-0.0901 0.34677-0.13507"/>
    <path d="m214.29 133.26c0.0984 0.0545 0.19675 0.10901 0.29513 0.16351"/>
    <path d="m214.37 134.26c0.0197 0.0699 0.0393 0.13981 0.059 0.20971"/>
    <path d="m213.97 134.28c-0.0836-0.0616-0.16724-0.12322-0.25086-0.18484"/>
    <path d="m212.29 133.28c1.1613-0.3156-0.26793 0.0233 0.45007-0.0391"/>
    <path d="m219.69 127.03c-0.0713 0.0924-0.14265 0.18483-0.21397 0.27725-0.0123 0.0272-0.0246 0.0545-0.0369 0.0817"/>
    <path d="m219.37 128.07c0.27545-0.019 0.5509-0.0379 0.82635-0.0569"/>
    <path d="m220.66 128.09 0.47958-0.0711"/>
    <path d="m221.8 127.92c0.0639-6e-3 0.12789-0.0119 0.19183-0.0178"/>
    <path d="m222.95 127.22c0.0984-0.0273 0.19675-0.0545 0.29513-0.0818"/>
    <path d="m224.42 126.59c0.31701-0.1168 0.16693-0.0625 0.45007-0.16351"/>
    <path d="m226.16 124.76c-0.0639-0.0675-0.12789-0.13507-0.19183-0.2026-0.0148-0.0154-0.0295-0.0308-0.0443-0.0462"/>
    <path d="m224.96 122.86c-0.35416-0.0545-0.70831-0.10901-1.0625-0.16351-0.0369 0.0107-0.0738 0.0213-0.11067 0.032"/>
    <path d="m222.36 123.64c-0.0861 0.0557-0.17215 0.11138-0.25823 0.16707-0.01 0.0284-0.0197 0.0569-0.0295 0.0853"/>
    <path d="m220.79 124.45c-0.0738 0.032-0.14757 0.064-0.22135 0.096"/>
    <path d="m221.06 126.25c0.10084 0.0806 0.20167 0.16114 0.30251 0.2417 0.0246-6e-3 0.0492-0.0119 0.0738-0.0178"/>
    <path d="m223.56 126.14c-0.0984-0.0142-0.19675-0.0284-0.29513-0.0427"/>
    <path d="m221.73 125.67c-0.85577-0.0476-0.51125-0.0358-1.033-0.0498"/>
    <path d="m220.68 124.87c0.0885 0.0486 0.17707 0.0972 0.26561 0.14574"/>
    <path d="m223.13 124.89v0.18128"/>
    <path d="m221.89 125.54c0.10329-0.0438 0.20659-0.0877 0.30988-0.13152"/>
    <path d="m223.58 123.83c0.0541-0.0118 0.10822-0.0237 0.16233-0.0355"/>
    <path d="m224.32 124.37c0.0541 0.18246 0.10822 0.36493 0.16232 0.54739"/>
    <path d="m224.16 125.61c-0.0197 0.0699-0.0394 0.13981-0.059 0.20972"/>
    <path d="m222.76 123.04c-0.38774-0.91701 0.12518 0.15077-0.17708-0.21327"/>
    <path d="m221.45 122.92c-0.55361 0.99061 0.12773-0.19859-0.16232 0.25237"/>
    <path d="m220.41 123.81c-0.0984 0.0521-0.19675 0.10427-0.29513 0.1564"/>
    <path d="m219.81 124.86c0.0123 0.0498 0.0246 0.0995 0.0369 0.14929"/>
    <path d="m219.9 126.06c2e-3 0.11137 5e-3 0.22275 7e-3 0.33412l0.0516 0.0711"/>
    <path d="m218.92 125.79c0.0516 0.0308 0.10329 0.0616 0.15494 0.0924"/>
   </g>
   <g>
    <g stroke-width=".365">
     <path d="m178.82 91.525c-5.227-8.6897 19.706-20.796 18.593-12.341-0.4614 3.5052-7.5402 7.6167-7.9684 2.0047-0.75429-9.884 11.267-14.978 18.652-10.379"/>
     <path d="m143.57 123.16c0.84284 5.3922 6.1751 10.78 11.658 11.047"/>
     <path d="m139.55 124.98c0.79742 7.4153 5.1854 15.623 13.133 16.82"/>
     <path d="m152.69 125.37c-3.0082-1.436 1.7253 3.698 2.7095 4.4431"/>
    </g>
    <path d="m77.783 76.565c2.1232 3.5752 7.3729 5.2254 10.738 2.7389 4.1158-3.0416-9.9914-7.212-2.6164 2.4527 1.2735 1.6689 2.6573 3.0871 4.2814 4.1901 4.2735 2.9023 8.9678 4.58 13.66 3.2908" stroke-width=".46958"/>
   </g>
  </g>
 </g>
</svg>
